<svg id="Layer_1" data-name="Layer 1" xmlns="http://www.w3.org/2000/svg" xmlns:xlink="http://www.w3.org/1999/xlink" viewBox="0 0 3840.88 2497.32"><defs><style>.cls-1{fill:#fcfffc;}.cls-2{fill:#dac36f;}.cls-3{fill:url(#linear-gradient);}.cls-4{fill:#dfcb81;}</style><linearGradient id="linear-gradient" x1="2167.83" y1="586.49" x2="1795.87" y2="1215.58" gradientUnits="userSpaceOnUse"><stop offset="0.06" stop-color="#966e32"/><stop offset="0.2" stop-color="#ffe484"/><stop offset="0.59" stop-color="#966e32"/><stop offset="0.69" stop-color="#ffe484"/><stop offset="0.88" stop-color="#966e32"/></linearGradient></defs><path class="cls-1" d="M894,1994.77l23.68,60.13h-6.72l-6.75-17.74H883.83l-6.76,17.74h-6.72Zm0,15.21-8.28,21.3h16.57Z"/><path class="cls-1" d="M952.59,1993.67v61.23h-5.4v-6.56a15.19,15.19,0,0,1-5,6,11.8,11.8,0,0,1-6.83,2.09,13.75,13.75,0,0,1-11.29-5.35q-4.27-5.36-4.28-14.16t4.19-14.19a13.53,13.53,0,0,1,11.17-5.29,12.25,12.25,0,0,1,7,2,14.32,14.32,0,0,1,4.83,6.07v-31.88Zm-5.4,43.33q0-6-3-9.73a9.76,9.76,0,0,0-8-3.7,9.46,9.46,0,0,0-7.72,3.36q-2.76,3.36-2.77,9.28,0,6.69,2.81,10.45a9.11,9.11,0,0,0,7.75,3.78,9.79,9.79,0,0,0,8-3.56Q947.19,2043.32,947.19,2037Z"/><path class="cls-1" d="M974.49,2057.16l-16.11-38.4h6.26l9.78,25.24,9.81-25.24h6.26Z"/><path class="cls-1" d="M1026.65,2018.76v36.14h-5.41v-6.56a15.26,15.26,0,0,1-5,6,11.84,11.84,0,0,1-6.81,2.07,13.75,13.75,0,0,1-11.29-5.35q-4.29-5.36-4.28-14.16t4.16-14.21a13.45,13.45,0,0,1,11.13-5.27,12.41,12.41,0,0,1,7.09,2,14.28,14.28,0,0,1,4.85,6.07v-6.79Zm-5.41,18.4q0-6.12-3-9.85a10.34,10.34,0,0,0-15.66-.3q-2.82,3.43-2.81,9.6,0,6.56,2.82,10.12a9.66,9.66,0,0,0,8,3.55,9.53,9.53,0,0,0,7.81-3.46Q1021.24,2043.37,1021.24,2037.16Z"/><path class="cls-1" d="M1037.63,2054.9v-36.14h5.44v5.56a14.33,14.33,0,0,1,5-5.17,13.47,13.47,0,0,1,6.83-1.7q5.76,0,9,3.4t3.24,9.44v24.61h-5.69v-21.29q0-5.49-2.08-8.16c-1.39-1.78-3.52-2.67-6.42-2.67a10.11,10.11,0,0,0-4.53,1,9.11,9.11,0,0,0-4.87,6.1,30.17,30.17,0,0,0-.45,6.32v18.69Z"/><path class="cls-1" d="M1103,2046.33v7.19a16.61,16.61,0,0,1-5,2.19,23.12,23.12,0,0,1-6,.73,15.29,15.29,0,0,1-12.14-5.31q-4.61-5.31-4.61-14t4.77-14.2a15.39,15.39,0,0,1,12.19-5.51,22.12,22.12,0,0,1,5.28.63,20.36,20.36,0,0,1,4.86,1.86v6.63a18.29,18.29,0,0,0-4.41-2.35,14,14,0,0,0-4.62-.81,11.07,11.07,0,0,0-8.79,3.82q-3.3,3.81-3.3,10.13a13.55,13.55,0,0,0,3.32,9.33,10.69,10.69,0,0,0,8.34,3.75,12.93,12.93,0,0,0,4.94-1A21.26,21.26,0,0,0,1103,2046.33Z"/><path class="cls-1" d="M1139.67,2037.76h-25.78v.55a14.15,14.15,0,0,0,3,9.38,10.1,10.1,0,0,0,13.69,1.62,16.78,16.78,0,0,0,4.66-5.9l4.23,3.16a18.35,18.35,0,0,1-6.26,7.38,15.76,15.76,0,0,1-8.82,2.49,14.91,14.91,0,0,1-12-5.45q-4.59-5.44-4.59-14.3,0-8.49,4.55-13.91a14.6,14.6,0,0,1,11.7-5.41,14,14,0,0,1,11.43,5.14q4.21,5.13,4.21,14Zm-6-5a11,11,0,0,0-2.86-7.37,9.56,9.56,0,0,0-7.06-2.59,9.17,9.17,0,0,0-6.76,2.71,11.42,11.42,0,0,0-3.13,7.25Z"/><path class="cls-1" d="M1178.21,1993.67v61.23h-5.4v-6.56a15.19,15.19,0,0,1-5,6,11.8,11.8,0,0,1-6.83,2.09,13.75,13.75,0,0,1-11.29-5.35q-4.28-5.36-4.28-14.16t4.19-14.19a13.53,13.53,0,0,1,11.17-5.29,12.25,12.25,0,0,1,7,2,14.32,14.32,0,0,1,4.83,6.07v-31.88Zm-5.4,43.33q0-6-3-9.73a9.76,9.76,0,0,0-8-3.7,9.46,9.46,0,0,0-7.72,3.36q-2.76,3.36-2.77,9.28,0,6.69,2.81,10.45a9.11,9.11,0,0,0,7.75,3.78,9.79,9.79,0,0,0,8-3.56Q1172.8,2043.32,1172.81,2037Z"/><path class="cls-1" d="M1211.31,2054.9v-57.84h10q11.09,0,15.63,1.25a20.25,20.25,0,0,1,7.94,4.17,24,24,0,0,1,6.79,9.79,41.9,41.9,0,0,1,0,27.44,23.74,23.74,0,0,1-6.81,9.78,20.34,20.34,0,0,1-7.77,4.17q-4.35,1.24-13.56,1.24h-12.23Zm6.26-6.48h3.94q9.6,0,13.3-.92a13.85,13.85,0,0,0,6.15-3.19,18.66,18.66,0,0,0,4.87-7.64,35.35,35.35,0,0,0,0-21.41,18.81,18.81,0,0,0-4.89-7.61,14,14,0,0,0-6.24-3.26q-3.78-1-13.21-1h-3.94Z"/><path class="cls-1" d="M1292.44,2037.76h-25.77v.55a14.14,14.14,0,0,0,3,9.38,10.1,10.1,0,0,0,13.69,1.62,16.56,16.56,0,0,0,4.66-5.9l4.23,3.16A18.35,18.35,0,0,1,1286,2054a15.71,15.71,0,0,1-8.82,2.49,14.91,14.91,0,0,1-12-5.45q-4.59-5.44-4.59-14.3,0-8.49,4.55-13.91a14.62,14.62,0,0,1,11.7-5.41,14,14,0,0,1,11.43,5.14q4.21,5.13,4.21,14Zm-6-5a11,11,0,0,0-2.86-7.37,9.54,9.54,0,0,0-7.06-2.59,9.21,9.21,0,0,0-6.76,2.71,11.36,11.36,0,0,0-3.12,7.25Z"/><path class="cls-1" d="M1300.76,2054.9v-36.14h4.94v7.5a18.9,18.9,0,0,1,4.77-6.71,9.5,9.5,0,0,1,6.15-2,10.4,10.4,0,0,1,3.77.71l-1.85,5.57a12.52,12.52,0,0,0-1.82-.53,7.89,7.89,0,0,0-1.63-.18,7.26,7.26,0,0,0-6.61,3.54q-2.2,3.52-2.21,10.64v17.62Z"/><path class="cls-1" d="M1371.41,2054.9v-21.29c0-3.66-.67-6.38-2-8.16s-3.37-2.67-6.12-2.67a8.74,8.74,0,0,0-4.14,1,9.18,9.18,0,0,0-3.22,2.87,9.66,9.66,0,0,0-1.39,3.32,32,32,0,0,0-.43,6.23v18.69h-5.36v-21.29q0-5.49-2-8.16t-6.11-2.67a9,9,0,0,0-4.18,1,9.1,9.1,0,0,0-3.25,2.87,9.21,9.21,0,0,0-1.33,3.2,32.65,32.65,0,0,0-.41,6.35v18.69h-5.37v-36.14h5.44v5.56a14.26,14.26,0,0,1,4.83-5.17,12.28,12.28,0,0,1,6.48-1.7,11.69,11.69,0,0,1,6.71,1.88,11.46,11.46,0,0,1,4.2,5.47,15.16,15.16,0,0,1,5-5.53,12.13,12.13,0,0,1,6.63-1.82q5.45,0,8.5,3.4t3.06,9.44v24.61Z"/><path class="cls-1" d="M1418,2018.76v36.14h-5.41v-6.56a15.17,15.17,0,0,1-5,6,11.84,11.84,0,0,1-6.81,2.07,13.75,13.75,0,0,1-11.29-5.35q-4.29-5.36-4.28-14.16t4.15-14.21a13.48,13.48,0,0,1,11.13-5.27,12.4,12.4,0,0,1,7.1,2,14.28,14.28,0,0,1,4.85,6.07v-6.79Zm-5.41,18.4q0-6.12-3-9.85a10.35,10.35,0,0,0-15.67-.3q-2.81,3.43-2.8,9.6,0,6.56,2.83,10.12a10.68,10.68,0,0,0,15.82.09Q1412.61,2043.37,1412.61,2037.16Z"/><path class="cls-1" d="M1429.86,2023.85h-6v-5.09h6v-14.58h5.68v14.58h6v5.09h-6v31.05h-5.68Z"/><path class="cls-1" d="M1445.07,2036.93a21.6,21.6,0,0,1,1.31-7.53,19.2,19.2,0,0,1,3.84-6.3,17.56,17.56,0,0,1,5.73-4.21,16.43,16.43,0,0,1,6.82-1.44,16,16,0,0,1,6.74,1.46,18.22,18.22,0,0,1,5.78,4.27,18.56,18.56,0,0,1,3.84,6.26,21.23,21.23,0,0,1,1.32,7.49,20.88,20.88,0,0,1-1.32,7.44,18.59,18.59,0,0,1-3.84,6.22,18.35,18.35,0,0,1-5.81,4.35,15.71,15.71,0,0,1-6.71,1.5,16,16,0,0,1-6.8-1.48,17.84,17.84,0,0,1-5.75-4.25,20.27,20.27,0,0,1-3.84-6.32A21,21,0,0,1,1445.07,2036.93Zm5.9,0a14.28,14.28,0,0,0,3.45,9.7,10.7,10.7,0,0,0,8.35,4,10.55,10.55,0,0,0,8.29-4,15.5,15.5,0,0,0,0-19.4,10.53,10.53,0,0,0-8.29-4,10.66,10.66,0,0,0-8.37,4A14.31,14.31,0,0,0,1451,2036.93Z"/><path class="cls-1" d="M1489.26,2054.9v-61.23H1495v61.23Z"/><path class="cls-1" d="M1503.84,2036.93a21.37,21.37,0,0,1,1.31-7.53,19.2,19.2,0,0,1,3.84-6.3,17.35,17.35,0,0,1,5.73-4.21,16.43,16.43,0,0,1,6.82-1.44,16,16,0,0,1,6.74,1.46,18.33,18.33,0,0,1,5.78,4.27,18.72,18.72,0,0,1,3.84,6.26,21.46,21.46,0,0,1,1.31,7.49,21.1,21.1,0,0,1-1.31,7.44,18.75,18.75,0,0,1-3.84,6.22,18.35,18.35,0,0,1-5.81,4.35,15.71,15.71,0,0,1-6.71,1.5,16.09,16.09,0,0,1-6.81-1.48,17.8,17.8,0,0,1-5.74-4.25,20.27,20.27,0,0,1-3.84-6.32A20.79,20.79,0,0,1,1503.84,2036.93Zm5.9,0a14.28,14.28,0,0,0,3.45,9.7,10.68,10.68,0,0,0,8.35,4,10.57,10.57,0,0,0,8.29-4,15.5,15.5,0,0,0,0-19.4,10.55,10.55,0,0,0-8.29-4,10.66,10.66,0,0,0-8.37,4A14.31,14.31,0,0,0,1509.74,2036.93Z"/><path class="cls-1" d="M1578,2018.76v35.51a34.51,34.51,0,0,1-.71,8.38,12.26,12.26,0,0,1-2.35,4.46,14.12,14.12,0,0,1-5.56,4.07,20,20,0,0,1-7.56,1.34q-7.39,0-11.54-3.75t-4.32-10.63h6.26v.48a7.9,7.9,0,0,0,2.53,6.28q2.52,2.2,7.14,2.21a12.51,12.51,0,0,0,5.71-1.2,8.22,8.22,0,0,0,3.61-3.58,10.24,10.24,0,0,0,1.06-3.12,30.1,30.1,0,0,0,.32-5.1V2048a14.71,14.71,0,0,1-4.94,5.94,11.89,11.89,0,0,1-6.86,2.08,13.79,13.79,0,0,1-11.29-5.3q-4.29-5.28-4.28-14.06t4.15-14a13.55,13.55,0,0,1,11.13-5.19,12.6,12.6,0,0,1,7.12,2,13.71,13.71,0,0,1,4.83,6v-6.71Zm-5.41,18.17q0-6.09-3-9.8a10.38,10.38,0,0,0-15.68-.28c-1.87,2.29-2.81,5.5-2.81,9.6q0,6.57,2.83,10.12a9.63,9.63,0,0,0,8,3.55,9.5,9.5,0,0,0,7.81-3.49Q1572.63,2043.12,1572.63,2036.93Z"/><path class="cls-1" d="M1587.85,2072.52l8.82-21.17-12.77-32.59h6.44l9.46,26,10-26h6.12l-21.83,53.76Z"/><path class="cls-1" d="M1613.34,2066.4l6.75-21.53,6.05,2.33-8.71,21Z"/><path class="cls-1" d="M1674.42,1994.77l23.68,60.13h-6.72l-6.76-17.74h-20.34l-6.75,17.74h-6.72Zm0,15.21-8.29,21.3h16.57Z"/><path class="cls-1" d="M1731.8,2037.76H1706v.55a14.14,14.14,0,0,0,3,9.38,10.1,10.1,0,0,0,13.69,1.62,16.67,16.67,0,0,0,4.66-5.9l4.23,3.16a18.27,18.27,0,0,1-6.26,7.38,15.73,15.73,0,0,1-8.82,2.49,14.91,14.91,0,0,1-12-5.45q-4.59-5.44-4.59-14.3,0-8.49,4.55-13.91a14.62,14.62,0,0,1,11.7-5.41,14,14,0,0,1,11.43,5.14q4.22,5.13,4.21,14Zm-6-5a11,11,0,0,0-2.86-7.37,9.54,9.54,0,0,0-7.06-2.59,9.19,9.19,0,0,0-6.76,2.71,11.36,11.36,0,0,0-3.12,7.25Z"/><path class="cls-1" d="M1736.6,2048.82l4.76-3.56a10.52,10.52,0,0,0,3.42,4.33,8.28,8.28,0,0,0,4.87,1.44,6.44,6.44,0,0,0,4.43-1.5,5,5,0,0,0,1.68-4,4.49,4.49,0,0,0-1.15-3.16,10.39,10.39,0,0,0-4-2.33l-.92-.36q-11.88-4.55-11.88-11.38a10.38,10.38,0,0,1,3.2-7.86,11.63,11.63,0,0,1,8.32-3,13.5,13.5,0,0,1,7.26,1.88,10.51,10.51,0,0,1,4.34,5.31l-4.52,3.08a8.23,8.23,0,0,0-2.93-3.83,7.75,7.75,0,0,0-4.5-1.34,5.43,5.43,0,0,0-4,1.52,5.22,5.22,0,0,0-1.55,3.89q0,3.32,6.47,5.57l1.92.67q5.3,1.9,7.38,4.33a9.51,9.51,0,0,1,2.08,6.42,11,11,0,0,1-3.29,8.31,11.82,11.82,0,0,1-8.59,3.18,14.88,14.88,0,0,1-7.73-1.89A13.52,13.52,0,0,1,1736.6,2048.82Z"/><path class="cls-1" d="M1770.41,2023.85h-6v-5.09h6v-14.58h5.69v14.58h6v5.09h-6v31.05h-5.69Z"/><path class="cls-1" d="M1788.26,2054.9v-61.23h5.44v30.65a14.39,14.39,0,0,1,5-5.17,13.49,13.49,0,0,1,6.83-1.7q5.76,0,9,3.4t3.23,9.44v24.61h-5.69v-21.29q0-5.49-2.07-8.16t-6.42-2.67a10.19,10.19,0,0,0-4.54,1,9.19,9.19,0,0,0-4.87,6.1,30.36,30.36,0,0,0-.44,6.32v18.69Z"/><path class="cls-1" d="M1857.73,2037.76H1832v.55a14.15,14.15,0,0,0,3,9.38,10.1,10.1,0,0,0,13.69,1.62,16.78,16.78,0,0,0,4.66-5.9l4.23,3.16a18.43,18.43,0,0,1-6.26,7.38,15.76,15.76,0,0,1-8.82,2.49,14.94,14.94,0,0,1-12-5.45q-4.58-5.44-4.59-14.3,0-8.49,4.56-13.91a14.6,14.6,0,0,1,11.7-5.41,14,14,0,0,1,11.43,5.14q4.21,5.13,4.21,14Zm-6-5a11,11,0,0,0-2.86-7.37,9.57,9.57,0,0,0-7.06-2.59,9.17,9.17,0,0,0-6.76,2.71,11.42,11.42,0,0,0-3.13,7.25Z"/><path class="cls-1" d="M1866.83,2023.85h-6v-5.09h6v-14.58h5.69v14.58h6v5.09h-6v31.05h-5.69Z"/><path class="cls-1" d="M1883.64,2001.33a4.6,4.6,0,0,1,1.19-3.18,3.77,3.77,0,0,1,2.9-1.32,3.69,3.69,0,0,1,2.86,1.34,4.71,4.71,0,0,1,1.2,3.24,4.52,4.52,0,0,1-1.18,3.16,3.72,3.72,0,0,1-2.88,1.31,3.79,3.79,0,0,1-2.9-1.31A4.64,4.64,0,0,1,1883.64,2001.33Zm1.32,53.57v-36.14h5.62v36.14Z"/><path class="cls-1" d="M1927.12,2046.33v7.19a16.39,16.39,0,0,1-5,2.19,23,23,0,0,1-6,.73,15.28,15.28,0,0,1-12.14-5.31q-4.6-5.31-4.61-14t4.77-14.2a15.39,15.39,0,0,1,12.19-5.51,22.18,22.18,0,0,1,5.28.63,20.36,20.36,0,0,1,4.86,1.86v6.63a18.29,18.29,0,0,0-4.41-2.35,14,14,0,0,0-4.62-.81,11.07,11.07,0,0,0-8.79,3.82q-3.3,3.81-3.3,10.13a13.55,13.55,0,0,0,3.32,9.33,10.69,10.69,0,0,0,8.34,3.75,12.93,12.93,0,0,0,4.94-1A21,21,0,0,0,1927.12,2046.33Z"/><path class="cls-1" d="M1931.28,2048.82l4.76-3.56a10.6,10.6,0,0,0,3.42,4.33,8.28,8.28,0,0,0,4.87,1.44,6.43,6.43,0,0,0,4.43-1.5,5.05,5.05,0,0,0,1.69-4,4.5,4.5,0,0,0-1.16-3.16,10.39,10.39,0,0,0-4-2.33l-.92-.36q-11.88-4.55-11.88-11.38a10.35,10.35,0,0,1,3.21-7.86,11.6,11.6,0,0,1,8.32-3,13.49,13.49,0,0,1,7.25,1.88,10.51,10.51,0,0,1,4.34,5.31l-4.52,3.08a8.23,8.23,0,0,0-2.93-3.83,7.73,7.73,0,0,0-4.5-1.34,5.44,5.44,0,0,0-4,1.52,5.22,5.22,0,0,0-1.55,3.89q0,3.32,6.47,5.57l1.93.67q5.3,1.9,7.37,4.33A9.51,9.51,0,0,1,1956,2045a11,11,0,0,1-3.28,8.31,11.86,11.86,0,0,1-8.59,3.18,14.92,14.92,0,0,1-7.74-1.89A13.52,13.52,0,0,1,1931.28,2048.82Z"/><path class="cls-1" d="M2002.6,1994.77l23.68,60.13h-6.72l-6.75-17.74h-20.34l-6.76,17.74H1979Zm0,15.21-8.28,21.3h16.57Z"/><path class="cls-1" d="M2030.93,2054.9v-36.14h5.44v5.56a14.41,14.41,0,0,1,5.05-5.17,13.49,13.49,0,0,1,6.83-1.7q5.76,0,9,3.4t3.23,9.44v24.61h-5.69v-21.29q0-5.49-2.08-8.16t-6.41-2.67a10.19,10.19,0,0,0-4.54,1,9.19,9.19,0,0,0-4.87,6.1,30.36,30.36,0,0,0-.44,6.32v18.69Z"/><path class="cls-1" d="M2101.66,1993.67v61.23h-5.41v-6.56a15.19,15.19,0,0,1-5,6,11.77,11.77,0,0,1-6.83,2.09,13.75,13.75,0,0,1-11.29-5.35q-4.28-5.36-4.28-14.16t4.2-14.19a13.5,13.5,0,0,1,11.16-5.29,12.25,12.25,0,0,1,7,2,14.42,14.42,0,0,1,4.84,6.07v-31.88Zm-5.41,43.33q0-6-3-9.73a9.78,9.78,0,0,0-8-3.7,9.45,9.45,0,0,0-7.71,3.36q-2.78,3.36-2.78,9.28,0,6.69,2.81,10.45a9.14,9.14,0,0,0,7.75,3.78,9.77,9.77,0,0,0,8-3.56Q2096.25,2043.32,2096.25,2037Z"/><path class="cls-1" d="M2134.75,2054.9v-57.84h6.19v22.25h27.66v-22.25h6.29v57.84h-6.29v-29h-27.66v29Z"/><path class="cls-1" d="M2216.92,2018.76v36.14h-5.41v-6.56a15.26,15.26,0,0,1-5,6,11.84,11.84,0,0,1-6.81,2.07,13.74,13.74,0,0,1-11.29-5.35q-4.29-5.36-4.29-14.16t4.16-14.21a13.48,13.48,0,0,1,11.13-5.27,12.42,12.42,0,0,1,7.1,2,14.28,14.28,0,0,1,4.85,6.07v-6.79Zm-5.41,18.4q0-6.12-3-9.85a10.35,10.35,0,0,0-15.67-.3q-2.81,3.43-2.8,9.6,0,6.56,2.82,10.12a9.66,9.66,0,0,0,8,3.55,9.5,9.5,0,0,0,7.8-3.46Q2211.52,2043.37,2211.51,2037.16Z"/><path class="cls-1" d="M2226.87,2001.33a4.55,4.55,0,0,1,1.19-3.18,3.75,3.75,0,0,1,2.9-1.32,3.71,3.71,0,0,1,2.86,1.34,4.7,4.7,0,0,1,1.19,3.24,4.56,4.56,0,0,1-1.17,3.16,3.72,3.72,0,0,1-2.88,1.31,3.78,3.78,0,0,1-2.9-1.31A4.6,4.6,0,0,1,2226.87,2001.33Zm1.31,53.57v-36.14h5.62v36.14Z"/><path class="cls-1" d="M2245.46,2054.9v-36.14h4.94v7.5a18.9,18.9,0,0,1,4.77-6.71,9.5,9.5,0,0,1,6.15-2,10.08,10.08,0,0,1,1.92.18,9.9,9.9,0,0,1,1.85.53l-1.85,5.57a12.52,12.52,0,0,0-1.82-.53,7.82,7.82,0,0,0-1.63-.18,7.27,7.27,0,0,0-6.61,3.54q-2.2,3.52-2.21,10.64v17.62Z"/><path class="cls-1" d="M2301.81,2054.9v-51.28h-14.72v-6.56h35.63v6.56h-14.65v51.28Z"/><path class="cls-1" d="M2321.65,2054.9v-36.14h4.94v7.5a18.89,18.89,0,0,1,4.76-6.71,9.55,9.55,0,0,1,6.16-2,10.4,10.4,0,0,1,3.77.71l-1.85,5.57a12.52,12.52,0,0,0-1.82-.53,7.89,7.89,0,0,0-1.63-.18,7.29,7.29,0,0,0-6.62,3.54q-2.19,3.52-2.2,10.64v17.62Z"/><path class="cls-1" d="M2377.29,2018.76v36.14h-5.4v-6.56a15.28,15.28,0,0,1-5,6,11.84,11.84,0,0,1-6.81,2.07,13.75,13.75,0,0,1-11.29-5.35q-4.29-5.36-4.28-14.16t4.16-14.21a13.45,13.45,0,0,1,11.13-5.27,12.39,12.39,0,0,1,7.09,2,14.28,14.28,0,0,1,4.85,6.07v-6.79Zm-5.4,18.4q0-6.12-3-9.85a10.34,10.34,0,0,0-15.66-.3q-2.82,3.43-2.81,9.6,0,6.56,2.83,10.12a10.68,10.68,0,0,0,15.82.09Q2371.88,2043.37,2371.89,2037.16Z"/><path class="cls-1" d="M2388.27,2054.9v-36.14h5.44v5.56a14.41,14.41,0,0,1,5.05-5.17,13.49,13.49,0,0,1,6.83-1.7q5.76,0,9,3.4t3.23,9.44v24.61h-5.69v-21.29q0-5.49-2.08-8.16t-6.42-2.67a10.14,10.14,0,0,0-4.53,1,9.23,9.23,0,0,0-3.4,2.87,9.08,9.08,0,0,0-1.47,3.23,30.17,30.17,0,0,0-.45,6.32v18.69Z"/><path class="cls-1" d="M2425.25,2048.82l4.76-3.56a10.52,10.52,0,0,0,3.42,4.33,8.28,8.28,0,0,0,4.87,1.44,6.4,6.4,0,0,0,4.42-1.5,5,5,0,0,0,1.69-4,4.49,4.49,0,0,0-1.15-3.16,10.47,10.47,0,0,0-4-2.33l-.92-.36q-11.88-4.55-11.88-11.38a10.38,10.38,0,0,1,3.2-7.86,11.63,11.63,0,0,1,8.32-3,13.53,13.53,0,0,1,7.26,1.88,10.44,10.44,0,0,1,4.33,5.31l-4.51,3.08a8.29,8.29,0,0,0-2.93-3.83,7.78,7.78,0,0,0-4.5-1.34,5.43,5.43,0,0,0-4,1.52,5.22,5.22,0,0,0-1.55,3.89q0,3.32,6.47,5.57l1.92.67q5.3,1.9,7.38,4.33A9.51,9.51,0,0,1,2450,2045a11,11,0,0,1-3.29,8.31,11.84,11.84,0,0,1-8.59,3.18,14.88,14.88,0,0,1-7.73-1.89A13.52,13.52,0,0,1,2425.25,2048.82Z"/><path class="cls-1" d="M2458.2,2072.52v-53.76h5.3v6.79a14.77,14.77,0,0,1,5-6,12,12,0,0,1,6.9-2.1,13.76,13.76,0,0,1,11.3,5.33q4.28,5.34,4.27,14.15,0,9-4.18,14.24a13.51,13.51,0,0,1-11.18,5.27,12.09,12.09,0,0,1-7-2,14.56,14.56,0,0,1-4.88-6.07v24.18Zm5.37-35.59q0,6.08,3,9.76a9.89,9.89,0,0,0,8,3.67,9.44,9.44,0,0,0,7.67-3.36q2.79-3.36,2.79-9.32,0-6.67-2.79-10.47a9.1,9.1,0,0,0-7.77-3.8,9.73,9.73,0,0,0-8,3.6Q2463.58,2030.61,2463.57,2036.93Z"/><path class="cls-1" d="M2500,2054.9v-61.23h5.69v61.23Z"/><path class="cls-1" d="M2547.48,2018.76v36.14h-5.4v-6.56a15.28,15.28,0,0,1-5,6,11.84,11.84,0,0,1-6.81,2.07,13.75,13.75,0,0,1-11.29-5.35q-4.29-5.36-4.28-14.16t4.16-14.21a13.45,13.45,0,0,1,11.13-5.27,12.39,12.39,0,0,1,7.09,2,14.28,14.28,0,0,1,4.85,6.07v-6.79Zm-5.4,18.4q0-6.12-3-9.85a10.34,10.34,0,0,0-15.66-.3q-2.8,3.43-2.81,9.6,0,6.56,2.83,10.12a10.68,10.68,0,0,0,15.82.09Q2542.07,2043.37,2542.08,2037.16Z"/><path class="cls-1" d="M2558.46,2054.9v-36.14h5.44v5.56a14.41,14.41,0,0,1,5-5.17,13.49,13.49,0,0,1,6.83-1.7q5.76,0,9,3.4t3.23,9.44v24.61h-5.69v-21.29q0-5.49-2.08-8.16t-6.42-2.67a10.14,10.14,0,0,0-4.53,1,9.23,9.23,0,0,0-3.4,2.87,9.08,9.08,0,0,0-1.47,3.23,30.17,30.17,0,0,0-.45,6.32v18.69Z"/><path class="cls-1" d="M2599.74,2023.85h-6v-5.09h6v-14.58h5.69v14.58h6v5.09h-6v31.05h-5.69Z"/><path class="cls-1" d="M2647.88,2018.76v36.14h-5.4v-6.56a15.28,15.28,0,0,1-5,6,11.84,11.84,0,0,1-6.81,2.07,13.75,13.75,0,0,1-11.29-5.35q-4.29-5.36-4.28-14.16t4.16-14.21a13.45,13.45,0,0,1,11.13-5.27,12.39,12.39,0,0,1,7.09,2,14.28,14.28,0,0,1,4.85,6.07v-6.79Zm-5.4,18.4q0-6.12-3-9.85a10.34,10.34,0,0,0-15.66-.3q-2.8,3.43-2.81,9.6,0,6.56,2.83,10.12a10.68,10.68,0,0,0,15.82.09Q2642.47,2043.37,2642.48,2037.16Z"/><path class="cls-1" d="M2659.72,2023.85h-6v-5.09h6v-14.58h5.69v14.58h6v5.09h-6v31.05h-5.69Z"/><path class="cls-1" d="M2676.53,2001.33a4.56,4.56,0,0,1,1.2-3.18,3.73,3.73,0,0,1,2.89-1.32,3.69,3.69,0,0,1,2.86,1.34,4.71,4.71,0,0,1,1.2,3.24,4.57,4.57,0,0,1-1.18,3.16,3.83,3.83,0,0,1-5.77,0A4.61,4.61,0,0,1,2676.53,2001.33Zm1.32,53.57v-36.14h5.62v36.14Z"/><path class="cls-1" d="M2692.42,2036.93a21.38,21.38,0,0,1,1.32-7.53,18.87,18.87,0,0,1,3.84-6.3,17.42,17.42,0,0,1,5.72-4.21,16.47,16.47,0,0,1,6.83-1.44,16.06,16.06,0,0,1,6.74,1.46,18.3,18.3,0,0,1,5.77,4.27,18.59,18.59,0,0,1,3.85,6.26,21.46,21.46,0,0,1,1.31,7.49,21.1,21.1,0,0,1-1.31,7.44,18.61,18.61,0,0,1-3.85,6.22,18.24,18.24,0,0,1-5.81,4.35,15.67,15.67,0,0,1-6.7,1.5,16,16,0,0,1-6.81-1.48,17.69,17.69,0,0,1-5.74-4.25,19.9,19.9,0,0,1-3.84-6.32A20.79,20.79,0,0,1,2692.42,2036.93Zm5.9,0a14.28,14.28,0,0,0,3.45,9.7,10.7,10.7,0,0,0,8.36,4,10.53,10.53,0,0,0,8.28-4,15.47,15.47,0,0,0,0-19.4,10.51,10.51,0,0,0-8.28-4,10.66,10.66,0,0,0-8.38,4A14.36,14.36,0,0,0,2698.32,2036.93Z"/><path class="cls-1" d="M2736.33,2054.9v-36.14h5.44v5.56a14.33,14.33,0,0,1,5.05-5.17,13.47,13.47,0,0,1,6.83-1.7q5.76,0,9,3.4t3.24,9.44v24.61h-5.69v-21.29q0-5.49-2.08-8.16t-6.42-2.67a10.11,10.11,0,0,0-4.53,1,9.07,9.07,0,0,0-3.4,2.87,8.91,8.91,0,0,0-1.47,3.23,30.17,30.17,0,0,0-.45,6.32v18.69Z"/><path class="cls-1" d="M2840.9,2010.89a25.72,25.72,0,0,0-8-6.66,20.39,20.39,0,0,0-9.35-2.15,18.58,18.58,0,0,0-8,1.86,20.5,20.5,0,0,0-6.81,5.18,23.41,23.41,0,0,0-4.48,7.68,28,28,0,0,0-1.49,9.38,29.46,29.46,0,0,0,.88,7.43,22.88,22.88,0,0,0,2.67,6.24,22.44,22.44,0,0,0,7.7,7.6,19.68,19.68,0,0,0,19.11.38,24.88,24.88,0,0,0,7.79-6.83v9.12a28.68,28.68,0,0,1-8.34,4.72,27.08,27.08,0,0,1-9.23,1.6,24.15,24.15,0,0,1-8-1.36,26.28,26.28,0,0,1-7.33-4,29,29,0,0,1-8.69-10.79,32.54,32.54,0,0,1-3-14.06,35,35,0,0,1,2-12.15,29.47,29.47,0,0,1,6.14-9.93,26.55,26.55,0,0,1,8.81-6.38,26.11,26.11,0,0,1,10.56-2.12,25.78,25.78,0,0,1,8.75,1.52,30.62,30.62,0,0,1,8.36,4.73Z"/><path class="cls-1" d="M2851,2054.9v-61.23h5.69v61.23Z"/><path class="cls-1" d="M2867.2,2001.33a4.6,4.6,0,0,1,1.19-3.18,3.78,3.78,0,0,1,5.76,0,4.75,4.75,0,0,1,1.19,3.24,4.56,4.56,0,0,1-1.17,3.16,3.72,3.72,0,0,1-2.88,1.31,3.78,3.78,0,0,1-2.9-1.31A4.64,4.64,0,0,1,2867.2,2001.33Zm1.31,53.57v-36.14h5.62v36.14Z"/><path class="cls-1" d="M2885.72,2054.9v-36.14h5.44v5.56a14.33,14.33,0,0,1,5.05-5.17,13.47,13.47,0,0,1,6.83-1.7q5.76,0,9,3.4t3.24,9.44v24.61h-5.69v-21.29q0-5.49-2.08-8.16t-6.42-2.67a10.11,10.11,0,0,0-4.53,1,9.15,9.15,0,0,0-3.4,2.87,8.91,8.91,0,0,0-1.47,3.23,30.17,30.17,0,0,0-.45,6.32v18.69Z"/><path class="cls-1" d="M2925.11,2001.33a4.56,4.56,0,0,1,1.2-3.18,3.78,3.78,0,0,1,5.76,0,4.75,4.75,0,0,1,1.19,3.24,4.57,4.57,0,0,1-1.18,3.16,3.83,3.83,0,0,1-5.77,0A4.61,4.61,0,0,1,2925.11,2001.33Zm1.32,53.57v-36.14h5.62v36.14Z"/><path class="cls-1" d="M2968.6,2046.33v7.19a16.61,16.61,0,0,1-5,2.19,23.12,23.12,0,0,1-6,.73,15.29,15.29,0,0,1-12.14-5.31q-4.61-5.31-4.6-14t4.76-14.2a15.39,15.39,0,0,1,12.19-5.51,22.05,22.05,0,0,1,5.28.63,20.36,20.36,0,0,1,4.86,1.86v6.63a18.1,18.1,0,0,0-4.41-2.35,14,14,0,0,0-4.62-.81,11.07,11.07,0,0,0-8.79,3.82q-3.3,3.81-3.3,10.13a13.55,13.55,0,0,0,3.32,9.33,10.69,10.69,0,0,0,8.34,3.75,12.93,12.93,0,0,0,4.94-1A21.06,21.06,0,0,0,2968.6,2046.33Z"/><path class="cls-2" d="M1008.47,1712.74q31.74,11.58,47.85,30.74t16.09,45.35q0,38.33-28.53,61.76T968.28,1874q-38.43,0-64.4-16.79t-35.08-47.72l35.08-14.8q7.11,25.23,23.43,38.23t41,13q29.07,0,47.07-14.33t18-37.28a46.45,46.45,0,0,0-12.54-32.35q-12.56-13.76-37.86-23.24l-39.52-14.42q-32.43-11.58-48.3-29.79t-15.87-43.64q0-29.6,25.75-49t65.73-19.35q29.31,0,50.73,10.62a77.74,77.74,0,0,1,33.42,31.31l-32,17.45q-10.89-16.12-24.43-24a59.82,59.82,0,0,0-30.64-7.87q-21.76,0-35.64,11.38t-13.87,29A35.25,35.25,0,0,0,929,1676.12q10.66,10.82,33.09,19.17Z"/><path class="cls-2" d="M1098.08,1867V1572.91h34.86v199.22l97.92-78.74h46.41l-101.47,79.5L1286.37,1867h-48.63l-104.8-91.64V1867Z"/><path class="cls-2" d="M1292.72,1609.72q0-8.92,7.44-15.28a26.94,26.94,0,0,1,18.1-6.35,26.37,26.37,0,0,1,17.87,6.45q7.44,6.45,7.44,15.56,0,8.91-7.33,15.18t-18,6.26a27.18,27.18,0,0,1-18.1-6.26A19.56,19.56,0,0,1,1292.72,1609.72Zm8.22,257.28V1693.39H1336V1867Z"/><path class="cls-2" d="M1386.56,1867V1693.39h34v26.75a81.75,81.75,0,0,1,31.53-24.85q18.42-8.16,42.63-8.16,36,0,56.18,16.31t20.2,45.35V1867h-35.53V1764.73q0-26.37-13-39.18t-40.08-12.81a79.19,79.19,0,0,0-28.31,4.84,55.88,55.88,0,0,0-21.21,13.76,40.19,40.19,0,0,0-9.21,15.56q-2.77,8.71-2.78,30.35V1867Z"/><path class="cls-2" d="M1850.44,1712.74q31.75,11.58,47.85,30.74t16.1,45.35q0,38.33-28.53,61.76T1810.25,1874q-38.41,0-64.39-16.79t-35.08-47.72l35.08-14.8q7.11,25.23,23.43,38.23t41,13q29.09,0,47.08-14.33t18-37.28a46.45,46.45,0,0,0-12.54-32.35q-12.55-13.76-37.86-23.24l-39.52-14.42q-32.43-11.58-48.3-29.79t-15.88-43.64q0-29.6,25.76-49t65.73-19.35q29.31,0,50.73,10.62a77.79,77.79,0,0,1,33.42,31.31l-32,17.45q-10.89-16.12-24.43-24a59.82,59.82,0,0,0-30.64-7.87q-21.76,0-35.64,11.38t-13.88,29a35.26,35.26,0,0,0,10.66,25.61q10.66,10.82,33.09,19.17Z"/><path class="cls-2" d="M2143.78,1951.62h-34.64V1835.5q-11.55,19.35-30.2,29.13t-44,9.77q-43.76,0-69.83-25.33t-26.09-68.4q0-42.32,26.64-67.93t70.61-25.61q23.76,0,42.85,10A79.93,79.93,0,0,1,2110,1726v-32.63h33.75ZM2110,1780.67q0-30.36-18.1-47.62t-50.07-17.27q-30.87,0-48.63,18.21t-17.76,50.28q0,28.65,17.43,44.78t48.07,16.13q31.08,0,50.07-17.65T2110,1780.67Z"/><path class="cls-2" d="M2224.51,1693.39v85.38q0,37.38,13,52.27t43.85,14.9q30.87,0,43.63-14.71t12.77-52.46v-85.38h35.53v101.32q0,39.27-23.54,59.48t-69.27,20.21q-45.3,0-68.84-20.31t-23.53-59.38V1693.39Z"/><path class="cls-2" d="M2607,1693.39V1867h-33.75v-31.5a82.09,82.09,0,0,1-31.2,28.94q-19,10-42.52,10-43.74,0-70.5-25.71t-26.75-68q0-42.89,26-68.21t69.5-25.33q25.53,0,44.29,9.77t30.31,29.12v-32.63Zm-33.75,88.42q0-29.41-18.76-47.34t-49-17.93q-31.31,0-48.85,16.51t-17.54,46.1q0,31.5,17.65,48.57t50.07,17.08q31.08,0,48.74-16.6T2573.25,1781.81Z"/><path class="cls-2" d="M2654.21,1867V1693.39h30.86v36q14-22.57,29.75-32.26t38.42-9.67a81.85,81.85,0,0,1,12,.85,84.12,84.12,0,0,1,11.54,2.56l-11.54,26.76a98.08,98.08,0,0,0-11.33-2.57,64.48,64.48,0,0,0-10.21-.85q-27.54,0-41.3,17t-13.77,51.14V1867Z"/><path class="cls-2" d="M2972.08,1784.65h-161v2.66q0,27.89,18.65,45.06t48.63,17.17a73,73,0,0,0,36.86-9.39q16.43-9.39,29.09-28.37l26.42,15.18q-15.32,23.54-39.08,35.48t-55.07,12q-46.41,0-75-26.19t-28.64-68.68q0-40.79,28.42-66.79t73.05-26q45.07,0,71.39,24.67t26.31,67.35Zm-37.3-24.09q-1.79-23-17.88-35.39t-44.07-12.43q-25.32,0-42.19,13t-19.54,34.82Z"/><path class="cls-3" d="M2105.72,1166.31c-26.17,14.9-54.53,18.53-84,16-34-2.93-65.62-13.51-96.11-27.86l-.16-.06a1.62,1.62,0,0,0-.26-.12,2,2,0,0,0-.33-.18c-1.9-1-7.33-3.7-14.43-7.47-6.79-3.6-15.09-8.14-23.33-12.91a.1.1,0,0,1-.08,0c-3.32-1.89-6.63-3.86-9.79-5.81q-8.23-5.5-16.46-11c-22.41-15-44.84-29.89-67.45-44.56-20.06-13-41.36-23.53-64.82-29.26a143.83,143.83,0,0,0-27.29-3.94c-16.84-.81-33.61,1.24-50.37,5.24l-3.74.71c-24.36,4.92-50.34,13.81-62.32,30,10-14.27,84.23-113.65,216.18-109.91,28.94.82,60.65,6.61,95.08,19.33a232.07,232.07,0,0,1,22.74,12.22c25,15.22,49.56,31.27,74.46,46.73,20.56,12.76,41.52,24.78,65.48,30.21,4.62,1.06,9.33,1.67,15,2.67a98.27,98.27,0,0,1-36.17,5.33c-27.12-.93-51.88-10.37-75.94-21.87-28.13-13.43-55.81-27.84-84.15-40.82a213.79,213.79,0,0,0-48-15.82,169.27,169.27,0,0,0-34.47-3.23,39.59,39.59,0,0,0-4.62.22,12.41,12.41,0,0,0-6.09,2c4.92.56,9.84,1,14.71,1.68,5.77.77,11.43,1.85,17,3.14,23.3,5.43,45,15.13,66.12,26.47l13.79,7.92,17.45,10,13.06,7.49,1.41.79c19.33,11.17,38.83,21.91,60,29.4,30.9,10.88,61.63,11.62,92.42-.2.46-.18,1-.24,2.43-.58-.91,2.41-1.57,4.34-2.39,6.25-13.25,30.63-37.37,45.5-69.93,47.11-32.38,1.61-62.12-8.6-90.92-22.13l0,0-.1,0c-1.31-.7-11.9-6.25-23.84-12.76-15.11-8.26-32.32-18-35.51-21.47v0c-17.81-11.91-35.8-23.53-54.09-34.65-19.07-11.63-39.45-20.07-61.46-23.49-3.07-.5-6.17-.87-9.29-1.15-19.39-1.71-38.54.08-57.08,6.8,3.88-.49,7.78-1,11.66-1.51a145.29,145.29,0,0,1,39.43.14c21.75,3,42.41,10.91,62,22.43,24.64,14.49,48.3,30.63,72.29,46.23l.67.44a.94.94,0,0,1,.18.12c.14.1.3.18.48.3a.83.83,0,0,0,.22.14c2.55,1.73,8.12,5.39,15.16,9.89l.06.06c3.59,2.29,7.57,4.8,11.69,7.38l.47.28c8.86,5.52,18.45,11.29,26.81,15.86a.32.32,0,0,1,.14.08c7.9,4.32,14.69,7.59,18.75,8.56h0c1.31.54,2.65,1.06,4,1.55a182.34,182.34,0,0,0,41.5,10.45c32.58,4.16,63.76.5,91.29-19.14,14.67-10.47,24.5-24.42,26-43,1.26-15.7-4.62-29.24-13.73-41.52-13.16-17.75-30.51-30.81-50.17-40.06-23.37-11-47.59-20.12-71.45-30-34.36-14.26-69-28-100.79-47.47-18.83-11.55-36.06-25.06-49.34-43-24.18-32.64-25.27-68.86-3.4-103.1,13.85-21.65,32.7-38.17,53.84-52.3,28-18.71,59.13-30.87,90.27-43,14.61-5.69,29.34-11.12,43.71-17.33a298.4,298.4,0,0,0,29.25-14.45,127.52,127.52,0,0,0,23.13-16.7,100.53,100.53,0,0,0,15.19-17.49,1.42,1.42,0,0,0,.2-.28c.43-.6,1.55-2.21,3-4.7.28-.48.58-1,.88-1.49s.61-1.1.93-1.67c.42-.78.86-1.62,1.32-2.51q1-1.92,2-4.16a101.37,101.37,0,0,0,9-35.27c1-15.46-1.87-33.32-12.78-51.71,9.64,15.25,32.25,53.64,44.63,96,0,0,0,.08,0,.12,5,17.24,8.35,35.13,8.43,52.39v.16c0,4.43-.25,8.87-.67,13.29-.08.88-.16,1.73-.28,2.59a158.45,158.45,0,0,1-19.8,61.2,192.48,192.48,0,0,1-13,19.76c-10.37,13.87-22.33,26.65-36.18,37.08-15.43,11.62-33.06,18.61-50.5,26.55-27,12.3-51.38,30.25-72.4,51.07a272.66,272.66,0,0,0-24.5,27.78c.82-1.05.08-6.29.18-7.76q.33-4.59,1.09-9.14a90.81,90.81,0,0,1,4.66-17,96.89,96.89,0,0,1,17.65-28.84c2-2.37,4.16-4.7,6.33-7a213.22,213.22,0,0,1,15.69-14.72c3.62-3.13,7.32-6.13,11.08-9.06,10.17-8,20.76-15.34,31.35-22.79,23.42-16.44,47.35-32.28,67.75-52.58,1.13-1.13,2.22-2.27,3.34-3.42,1.91-2,3.8-4.06,5.59-6.13,12-13.86,21.06-29.44,24.34-48.31.2-1.11.24-2.29.34-3.44-.32-.12-.64-.24-.95-.34-2.59,5.12-4.92,10.37-7.79,15.31-11.64,20.06-28.66,35-47.6,47.6-21.42,14.25-43.37,27.73-65.12,41.52q-5.79,3.68-11.59,7.4c-16.54,10.67-32.28,22.41-45.45,37.22-.52.56-1,1.14-1.52,1.71-17,19.71-25.83,42.16-23.12,68.53.16,1.59,0,3.24,0,4.85l-1.46.9c-6.92-7.44-14.27-14.55-20.71-22.39-10.59-12.86-18.37-27.21-20.56-44.13-2.43-18.52,3-34.9,13.55-49.81,14-19.76,32.94-34,54-45.08,24-12.58,48.49-24.24,72.83-36.2,6.41-3.15,12.82-6.33,19.18-9.54,5.28-2.64,10.51-5.33,15.65-8.14,15.88-8.71,31-18.6,43.52-32.18,1-1.09,2-2.19,2.93-3.3.22-.24.42-.46.6-.7,23.64-26.57,17.13-63.73,17.13-63.73.84,12-8.93,29.64-16.75,41.72l0,0c-.13.26-.29.52-.43.76l-.1.16a92.91,92.91,0,0,1-8.46,12l-.3.37a115.16,115.16,0,0,1-24.52,21.72c-.58.4-1.17.77-1.77,1.17-14,9.18-28.7,16.7-43.71,23.75-9.29,4.36-18.7,8.53-28.08,12.77-27.76,12.56-56,24.24-81.84,40.68-17.37,11-32.64,24.48-43.82,42.06-21,33-17.32,70.27,9.89,101.92,21.1,24.54,48,40.76,77.66,52.42,39.66,15.6,79.79,30.07,119.51,45.56,22.19,8.66,44,18.37,62.54,33.91,17.37,14.55,30.53,32,35.66,54.49C2154.22,1113,2138.22,1147.82,2105.72,1166.31Z"/><path class="cls-4" d="M2341.09,1260.94c-.08,4.78.86,3.06,1,3.78C2341.91,1256.74,2340.85,1261.15,2341.09,1260.94Z"/><polygon class="cls-4" points="2338.96 1182.17 2339.34 1183.56 2338.4 1171.95 2338.96 1182.17"/><path class="cls-4" d="M2339,1108.5c-1.6,7,.26,26.69-.31,39.82l-.36,2.16,1.29,5.92C2339.38,1140.45,2338.53,1119.73,2339,1108.5Z"/><path class="cls-4" d="M2342.44,1069.22c-.62,2.42-.53-8.5-.19,9.16.08-.89.11-1.14.16-1.66C2342.42,1075.13,2342.43,1072.94,2342.44,1069.22Z"/><path class="cls-4" d="M2342.41,1076.72c0,7.76.52-5.08,0,0Z"/><path class="cls-4" d="M2342.05,1040.89l.56,10.22c.37-2.13.45-11.23.72-7.85C2343,1032.77,2342.66,1034.93,2342.05,1040.89Z"/><path class="cls-4" d="M2340.88,1031.2l.23,5.3A16.91,16.91,0,0,0,2340.88,1031.2Z"/><path class="cls-4" d="M2341.61,1047.73l-.5-11.23c-.25,1.48-.78,1.63.18,5.15C2340.82,1040.73,2341.28,1043,2341.61,1047.73Z"/><path class="cls-4" d="M2341.37,1054.09c-.35,5.73-.57,13.13-1.13,2.88C2340.47,1076.52,2341.59,1073.64,2341.37,1054.09Z"/><path class="cls-4" d="M2337.31,1104.74l-.46,7.66.53,6.63C2337.12,1115.72,2337.82,1104.26,2337.31,1104.74Z"/><path class="cls-4" d="M2342.88,977.23c-.34-.64-.91,3.44-1.35,4.2l.4,7.55C2342.16,985.1,2342.37,977.74,2342.88,977.23Z"/><path class="cls-4" d="M2341.53,981.43l-.58-11.3C2340.88,980.22,2341.16,982.07,2341.53,981.43Z"/><polygon class="cls-4" points="2339.1 1029.38 2340.33 1047.93 2339.08 1025.8 2339.1 1029.38"/><polygon class="cls-4" points="2342.92 934.1 2343.71 940.5 2342.52 929.09 2342.92 934.1"/><path class="cls-4" d="M2342.78,905.49c.66,4.73,1.11-6.5,1.51-1.49-.11-7.77-.67-14.41-1.18-20.38A202.29,202.29,0,0,1,2342.78,905.49Z"/><path class="cls-4" d="M2342.37,873.58c.16,3.17.44,6.46.74,10C2343,880.24,2342.74,876.93,2342.37,873.58Z"/><path class="cls-4" d="M2341.12,950.9c.2-.88.74-2.56,1-8.89l-1,4.44C2341.13,947.81,2341.12,949.34,2341.12,950.9Z"/><path class="cls-4" d="M2341.1,946.61l0-.16c0-4.82,0-8.16.06-9.6C2341.17,938.09,2341.15,941,2341.1,946.61Z"/><path class="cls-4" d="M2341.11,952c0-.41,0-.72,0-1.12A1.94,1.94,0,0,0,2341.11,952Z"/><path class="cls-4" d="M2340,999.77c-.54-6.63-1.12-20.47-1.94-7.08C2338.69,997.45,2339.16,989.79,2340,999.77Z"/><path class="cls-4" d="M2339.91,957.53l-.22,12c.26-.24.63-2.4.89.89Z"/><polygon class="cls-4" points="2339.61 951.66 2339.91 957.53 2339.99 953.09 2339.61 951.66"/><path class="cls-4" d="M2341.47,894.13c-.41-5.18-.45-10.85-.51-17.25-.19,6.86-.3,14-.29,20.69C2341,898.52,2341.51,901.48,2341.47,894.13Z"/><path class="cls-4" d="M2341.21,919.63c0-.36,0-.81-.06-1.15C2341.07,919.19,2341.05,919.76,2341.21,919.63Z"/><path class="cls-4" d="M2341,813.84l-.17,1a2.5,2.5,0,0,1,.16.24Z"/><path class="cls-4" d="M2340.49,898.73a74.5,74.5,0,0,0,.34,11.17c-.09-3.85-.16-7.94-.16-12.33C2340.53,897.15,2340.44,897.07,2340.49,898.73Z"/><path class="cls-4" d="M2341.93,856c-.2,2.68-.38,5.73-.53,8.93C2341.7,862.3,2342.18,857,2341.93,856Z"/><path class="cls-4" d="M2341.42,916.74c0,.26,0,.49,0,.77C2341.67,915.82,2341.57,916,2341.42,916.74Z"/><path class="cls-4" d="M2341.42,916.74c-.14-2.65-.38-4.74-.59-6.84.08,3.14.18,6.06.32,8.58C2341.22,917.84,2341.33,917.2,2341.42,916.74Z"/><path class="cls-4" d="M2334.8,794.75c.89.91,1.71,14.47.75,26.17.67,11.52,3.6,4,5.24-6.07-.39-.35-.75-.35-1.28-12.21-.48,4.15-1.13,26.31-1.94,16.3-.46-15.7.32-12.86.79-20.5-1.11,6.49-1.62-20-3.25-16.55l.58,13.77C2335.43,795.91,2335,790.92,2334.8,794.75Z"/><path class="cls-4" d="M2340.7,837.44l.11,4.88c.15-5.56.51-9.54,1.2-16.87-.43-8.12-.76-9.8-1.06-10.36l-.12,24Z"/><path class="cls-4" d="M2340.81,864.22c-1-3.81-1.38-15.52-2.43-8.35.07,14.32.81,10,1.23,18.59-.24-23.11.54,6.63,1.09-10.06.16,4.54.21,8.62.26,12.48.15-4.16.3-8.17.44-12,0,.21,0,.36-.06.53v.09c-.13,1-.2,1.32-.13.2,0-.08,0-.36,0-.49a3.25,3.25,0,0,1-.36-1c.2-6.69.25-1.05.36,1,.05.08.09.26.15.29a.28.28,0,0,1,0-.09l-.53-23.14C2340.67,847.22,2340.7,853.35,2340.81,864.22Z"/><path class="cls-4" d="M2336,980.35c.09-.72.16-.69.23-.74C2336.06,978.11,2336,977.54,2336,980.35Z"/><path class="cls-4" d="M2336.54,970.83a52.43,52.43,0,0,1,.42,8.55c-.29,4.74-.46,0-.78.23.25,3.29.69,11.53,1.16,1.2l-.13-1.64c.33-9.32,1.54-21.29,1.67-19.66A58.66,58.66,0,0,0,2336.54,970.83Z"/><path class="cls-4" d="M2338.43,916.86l-.48-19.27-.84,9.81.51-.49C2337.42,917.86,2338,915.5,2338.43,916.86Z"/><polygon class="cls-4" points="2341.44 811.64 2342.47 814.19 2341.02 803.06 2341.44 811.64"/><polygon class="cls-4" points="2341.32 786.6 2342.21 787.52 2341.67 780.91 2341.32 786.6"/><path class="cls-4" d="M1510.6,753.92l.25,5.66C1510.77,756.9,1510.69,755.18,1510.6,753.92Z"/><path class="cls-4" d="M1510.66,712.92l-.44-1C1510.46,713.82,1510.64,714.6,1510.66,712.92Z"/><path class="cls-4" d="M2028.32,473.28c-8.24-.83-17.46-2.12-16.46-1.12l2.53,1C2020.15,473,2024.57,473.07,2028.32,473.28Z"/><path class="cls-4" d="M1607.12,479.1l2.42.3,5.57-.93Z"/><path class="cls-4" d="M1601.3,483.14l-10.87-.63C1592.88,482.73,1596.37,482.94,1601.3,483.14Z"/><path class="cls-4" d="M1511.63,977.8l1,6.61C1512.62,974.07,1512.12,978.62,1511.63,977.8Z"/><path class="cls-4" d="M2341,530.12c.38-7.12.54-12.78.59-17.76C2341,520.94,2340.15,527.86,2341,530.12Z"/><path class="cls-4" d="M1500.25,737.79c.18,3.46.37,4.94.59,4.84C1500.68,739.06,1500.49,737.05,1500.25,737.79Z"/><path class="cls-4" d="M2341.55,491.81c-.08,1.26-.15,2.48-.23,3.76.16,5.2.29,10.44.23,16.79A129.28,129.28,0,0,0,2341.55,491.81Z"/><path class="cls-4" d="M2030.3,1259.16l1.83.11C2032.31,1259.14,2031.5,1259.14,2030.3,1259.16Z"/><path class="cls-4" d="M2266.84,1269l-9.71.07C2258.88,1269.14,2261.81,1269.13,2266.84,1269Z"/><path class="cls-4" d="M2341.75,685.84c.06,5.31.1.84,0,0Z"/><path class="cls-4" d="M2337.89,711.67c-.11-1.13-.25-2-.47-2.12A6.18,6.18,0,0,1,2337.89,711.67Z"/><path class="cls-4" d="M2295.65,479h-.46C2296.77,479.21,2296.5,479.18,2295.65,479Z"/><path class="cls-4" d="M2341.3,693.83c.12-2,.22-4.29.29-6.79C2341.52,688.14,2341.42,690.2,2341.3,693.83Z"/><path class="cls-4" d="M2341.76,692.76c0,1.83-.06,3.27-.09,4.64C2341.83,698.07,2341.93,697.48,2341.76,692.76Z"/><path class="cls-4" d="M2341.69,678.44c0,3,0,5.87-.1,8.6.07-1,.12-1.48.16-1.2C2341.74,684.28,2341.72,682.08,2341.69,678.44Z"/><path class="cls-4" d="M1595.25,1261.77l1.13.09C1601.74,1261.46,1599.39,1261.52,1595.25,1261.77Z"/><path class="cls-4" d="M1890.09,483.41l.61-.05-.78,0Z"/><path class="cls-4" d="M1871,484.13a85.79,85.79,0,0,1,18.9-.8l-6.31-2.81Z"/><path class="cls-4" d="M1510.88,852.07l.87-13.39c1.45,16.16,1,27.86,2.18,15.29-3-1.9-.31-52.07-3.36-53.94l.64-8.83c0,2.53.15,2.94.12,5.44,1.46-17.17-2.21-12.76-1.77-34.89.23-7.71.68-13.09,1-7.83l-.76-17.19c.06-5,.59-3.77.53,1.2l-.24-26.21.09.2c-.48-3.74-1.22-12.21-1.53-16.35.43-6.66.32,3.34.7,1.64l-.74-14.52c.79-5.91,1.56,6.12,1.45,16.14,3-13.55-.77-12,1-41.29l.38,13.71c1.74-8.84,1.11-19.53,2.19-35-.57,3.67-2.72,31-3.48,15.26a145.17,145.17,0,0,0-.28-18.78c1.09-.08.82-8.38.76-18.76l1.44.71c-.42-11.23-1.15-10.34-1.8-16.94.14-12.51,1.26-15.11,2.2-18.05.23-20-1.79,13.83-2.06-9.88.55-16.66,0-28.36-.9-48.29.5-11.66.88,2,1.29-2.14L1509.71,509c0-2.53.38-1.71.55-1.3-.44-8.71-1.43-.71-1.82-14.41a15.66,15.66,0,0,1-.37-5.12c0-.48,0-1,.07-1.55s.08-.94.12-1.45c.09-.92.2-1.93.31-3l4.61.46c.48.07,2,.14,3.32.2l4,.14a117.5,117.5,0,0,0,15.42-.42c4.18.41-2,.89-.74,1.44,23.25-1.18,19.94-.85,39-2.44l16.26.94c-12-1.08,3.32-2.36,16.69-3.41-4.24-.52-7.86-1-10.29-1.19l21.35-.77c2.57.23.42.73-3.07,1.33l3.91-.35c7.63.53,3.67,1.36-1.8,2.17l-7.68-.89c-5.28.87-10.21,1.84-9.11,2.68,1.39-.16,4.06-.31,7-.39-1.38.24-2.26.45-1.62.6s3-.17,6.44-.54l4.85,1.61,1.18-.64,27.92,1c20-1.61,37.36-4,69.06-4.65-7.86,1.18-1.69,1.92-2.11,3.31-8.66-1.47-24.56.63-41,.33,8.58.16,6.69.82,4.51,1.05l29.31-1.34c-.66,1.14,6.22.85,13.88,1.33-5.79-2.26,21.85-1.5,33.77-2.19.74.75-2.11,1.52-16.66,1.34,16,1.7,20.74-2.64,36.5-1.2-3.56,0-5.47-.1-6.88.28,8.3-.67,28.59-.14,23.82.52l-3.55,0c23.59.26,71.8,0,75.32-1.9.24.25-3.09,2.31-4.52,2.69l42.09-6.43c-3.71,1.64,10.52,5.55-9,6.48a241.54,241.54,0,0,0,24.4-.07c-3.83-.24-9.55-2.38-4.31-2.53,14.37,1.83,10,1,27.69,2.54-5.74-.35.64-2.93,9.71-2.84-1.41.38.76,2.54-2.56,2.81l22.59-2.53c-5.64.45-1,2.14,4,2.85-2.34-.49,19.53.05,25.55-.2l-9.57-.59c25.5.39,25.19-3.55,50.49-3.42-3.06.53-7.56,3.22,5.3,3.53,5.9-1.29,26.11-6.22,48.5-7.22l4.29.74,17.17-.84c-10.69,2-40.7,6-57.09,7.64,9.54.59,2.66.87,17,.81,5,.69-7.79,1-12,1.09l33.28.45c-1.48-1.52,25.45-1.52,24.18-2.78l-36.14,1.57c-1.47-1.51,20.89-4.29,44.47-4,6,.6-4.49,2.69-4,3.19,3.06-.52,22.38-1,24.55-.63l-10,.81c13.12.57,21.42-2,37.19-.56,5.44.1,16.25,1.95,17.19,1-8.87-1.72-10.61-7-4.69-8.35,1.91.12,28.58,1.65,34.8,2.5,9,1.35-13.46,3.22-5.83,4.38.33-.41,5.28-.92,7.35-1.08,5.71.35-2.37,1.28,10.05,1.09,2.08-1.53,25.27.13,5.88-1.3,12.15-.43,12.91.32,27.18.25-4.54-1,12.82-3.37,25-3.8-.72.39,2,.89,3.34,1.13l21.41.26,17.78.37c-.05,3-.09,6.11-.15,9.39,0,3.56,0,7.31-.06,11.37-.37,2.14-.82,13.34-1.48,8.57a127.42,127.42,0,0,1,.83,13.58c-1.33,13.86-.21-16-1.8-5.41.89.91,1.23,18.53,1.79,28.74,1.37-3.14.26-23.58-.3-33.8,1.9-.05,3.89,17.74,4.76,42,.47,19.3-1.22,8.37-.95,11.72-.33,36.24,3.31,30.87,1.94,61-1.21,11.94-2.4.53-3.27,3.18-.46-15.72.76-24.13.71-34.78l-.57,13.11a196.92,196.92,0,0,1-.35-21.21c-1.09,10-.21,61.23-1.22,89.2.41,5,.83,13.54,1.32,9.48l-.17-8.85c1-8.13,1.34,16.66,1.8,5.46.68,11.87,1.76,25.17,1.21,41.88l-1.38,3.14c.4-.36.82-10.92.4-15.62.61,7-1.86,25.62-.06,33.25l1-11.71c.69,11.91,2.15,26.64,1.72,41.45,1.36-6.74-.16-3.41,1.43-13.94-2,9.13.09-37.87-2-23.22,1.84-10.8.78-18.69,2.35-32.8-.45.44-.86,5-.64-7.43-.13-.56-.3-1.89-.4-2.73,0-.38,0-.51,0-.84,0,.25,0,.44-.05.69-.07-.54-.08-.59,0,.25a48.68,48.68,0,0,1-.69,6.34c-1-6.17-1-25.94-1.55-32.63.21-7.37.52,3.09,1-.94l-.81-10c1-1,1.67-19.6,2.27-2.22l0-15.64c.57-9.21.79-21.88.37-29.69.21-7.37-1.12-18.63-.33-12.2l-.63-24.53.26-.23c.12-24.19-1.67-49.81.15-77.48-.08-2.51-.15-5.05-.24-7.78,0-4.35-.09-9-.15-14.22h-10l-8.78-.1-2.66-.88c-10.46.31-31.41-.87-35.91,0-11.28-2.35-50.77-.51-69.16-.93l-.7,1.14c-12.66-.07-24.8.26-40.52.72l1,1c-13.56.83-34.85-.71-56.28-.61,1.46-.39,6.89-.28,10.74-.05-25.61-2.28-54,1.65-77.26,0a104.78,104.78,0,0,1-14,0c.54,0,1,0,1.44-.05h-2.38l-8-.54c2.43.25,4.75.45,6.77.54-4.47,0-11.24.15-17.87.4l-2.83-1.08-1.53,0c-6.52-.4-5.24.51-1.76,1.33-3.34.17-6.41.39-8.78.65-5.29-1.75-17.41.59-24.63-1.28-4.47.91-33.36.69-36.9,2.6-.22-.25-2.18-.37,1.4-.38a200.29,200.29,0,0,0-21.42.1l-3.14-1.38-16.15,1.85c-9.82-.83-13.89-1.32-4.14-2.38-23.53,1.63-19.09.61-39.1,2.23l1-.89c-7.15,0-18.58,1.22-22.9.49-16-1.69-79.17-.24-120.24-1.81,8,2.62-19.09-1.17-20.71.86-2.4-.62-8.12-1-1.47-1.51-21,.61-31.49-1-46,.73-2.4-.62,4.48-.91,2.35-1.28-1.68.14-6.66.54-8.84.17s3.07-.52,6.39-.79c-21.41.11-23.58,2-25.14,3.81-10.85-.85-16.26-.73-24.1.45-3.77-.59-10.08-1.2,3.23-1.42-7.49-.08-45.72-.85-46.49.58-2.34-.36-10.46-.1-12.43.06l-17.49-.12-19.27,0,6.18.24a45.54,45.54,0,0,1-8.94.89c0,3-.06,6.26-.16,10.22-.1,3.32-.2,6.89-.13,11.2l-.18-.38c-1.25,30.48.6,13.16-.83,43.24l1.08-1.64c2.32,2.8-1.36,26.65-.48,44.1l.62-6.3c.79,9.53-3.16,26.65-3.44,36.22-.21,2.09-.33-3.3-.48-6.21-1.36,25.06,1.41,3.25,1.74,21.93-.76,3.44-1.93-4.44-2.08,8.13-.61,6.26,2.48,36.46,1,53.61.58-3.78,1.17-7.53,1.61,1.14.21,13.3-2.22,36-.37,48-.16,1.69-.31,2.33-.46,2.4.48,10.16.8,33,1.8,39.15-3.73,9.4,1.81,63.2-1.62,63l.18,31.27-.35-.82c-.23,20,.59,27,1.42,34.07-.23,4.62-.56,1.25-.74.87-.69,29.2-.54,32.1,1.17,56.59l-1.12,2.54c.65,6.64-1.74,42.22-.44,70.86a9.13,9.13,0,0,1-.5-3.15c1.3,32.22-3.09,77.14,1,89l1,21.26c.32-27.51,1.76,4.1,2.44-7.21.24,10.81-1.23,28-1.43,14.67l.2-2.08c-2.12-4.88-.75,34.19-2.19,33.44q-.06,20-.12,39.64-.18,21.76-.37,43.2l43.95.43,39.08.24-5.85-1.65,17.69.1c4.64.38,6.23,1.28-6.39,1.22,6.64.93,21.17-.78,21.53-1.14,24.7.66-9.66,1.92-2.08,2l10.29-.13-2.32-.19c8.34-.67,9.08-1.38,24.25-1.3,9.6.33,4.92,1,8.7,1.08,0,.11,1.25.17,5.79,0l22.29.14-8.91-1.3c9.87-.63,20.95.07,10.67-1.4,15.09,2.27,83.12.82,92.39,1.52,13.83-1,27.49-.93,44.4-.82-4.2-.27-6.72-1.72,7.87-1.55-5.33,3,26.72,1.31,38.51,3.48-10.54-1.44,41.48-.36,24.94-2.4,12.17.25.74,1.13,10,1.84,29-1.17,63.85.76,99.67.36.55-.39-5.44-1,2.24-1.59l18.91,2c7.07-.19,6.51-2.28,19.43-.91-1.82-.33-4.55-.83.2-1,70.16,1.93,143.37-1.58,214.62,2-9.65-.76-3.22-.84,4.15-.87-4.79-.18.11-1-.83-1.51l29.83,1.49c5.44-1.49,32-.1,35.1-1.52l-9.45.25c12.56-1.68-17.58-3.73-15.74-5.88-14.07,1.91-37.09-2.83-60.17-.09-5.1-.44,4.35-.7,1.62-1.2-5.85.93-12.91,1.12-26,.7l1.48-.22c-36.78.22-52.55-.69-93.87-1.3l3.06,1.07c-8.88-.14-10.75-.48-14.9-.74-10.19,1.61,24.93.09,15.65,1.87-11.78-2.17-62.62,0-70.58-2.5-13.66,0,4,1.24-9.65,1.22l-3.62-.67-3.45.86c-9-.14-13.47-1-13.81-1.54,2.17.07,6.18-.15,8.51-.2-11.62-.79-32.75.27-36.74,0l13.13.41c-37.28.62-82.8-.25-118.81,1.1l2.73.51c-27.5.93-22-.56-52.23-.13l1.1-.12c-6,.51-14.11.76-22.38.7,7.63-.59-14.34-1.14-4.34-1.79-29.82,1-14.75.78-34.45,2.65l-4.54-.84c-6.71.76-7.28,1.15-22.36,1.37,12.37-.71-9.62-1.27,4.23-2.21-31.64-1.83-47,1.84-61.51-.83-14.53,2.31,27.39,1.28,19.25,1.77,6.81.76-12,1.73-21.93,1.5-10.11,0-17.19-3-42.62-2.91,2.53,0,2.71-.16,5.23-.15-9.52-.59-18.65.79-30.32-.16-6.55,1.39-15.16-.08-17,1.7l23.32-.42c-13.22.47-25.62,2.55-47.41,1.54,1.7-.36,8.18-.83,12.64-1.09-6.38-.53-12.27.35-18.88-.19,1.89-1.78,28.35-.39,42.52-1.75-6.84-.75-26.8,1.29-19.68-.64-10.23,2.45-25.06-.31-42.28,1.57l1.14-1.07c-2.73.17-8.37.67-13.39.64l9.08-1.38a151.72,151.72,0,0,1-20.34,0l-9.94-.44c-1.66,0-3.31-.08-5-.08l-2.5,0-1.25,0a8.77,8.77,0,0,0-1,0l8,0c2.11,0,3.61.09,4.65.15,2.09.13,2.37.32,2.14.53-.45.42-2.92,1,3,1.33-7.93.33-13.26.36-17.25.22-.59,0-.7,0-1-.06l-.7-.08a10.23,10.23,0,0,1-1.17-.19,6.65,6.65,0,0,1-1.57-.49c.21-.89.44-1.67.66-2.41.1-.33.2-.69.31-1.07a4.51,4.51,0,0,0,.15-.61c0-.53.09-1.08.14-1.67.35-4.68.55-11.24.42-21.69.15,5.23-.65,19.65-1.14,11.46.22-7.36.63-17.08,1.19-21.59-.22-25.62-1.1,3.93-1.75-7,1.3-8.72-.53-12.57-1-23.8l1.09-.08c.69-29.2-2.26-7.74-1.42-34l1.5,11.11-.39-13.7,1.23,2.83c-.91-14.91-.67-19.55-.33-34.16-.76,3.4-2-1.9-2-14.83.64-8.82,1,4.93.88-13.39a50.43,50.43,0,0,1,.53,16.64c.35.82.68,4.08,1,4.93.74-9.5.17-23.87.16-30.51,0,2.56-.1,5.61-.26,7.18l-1.5-26.57c.41-4.18.74-.87,1,2.42-.11-5.38-.61-9.1-.7-17,.88,2,1.79,1.56,2.2,12.76l-1-25.31c.39-1.7,1.06-13,1.38-9.71.52-14-1.71-34.43-1-53a59,59,0,0,1-.46-6.87c.2-17.48,1.29-33,.08-53.7l1.58-11.76c-.36-16.23-2,15.92-2.59-11.11-.5-19.14,1.35-7.14,1.79-13.86-.8-9.51-2.42-26.06-1.13-43.64C1511,842.07,1510.76,846.64,1510.88,852.07Zm-.7-200.2c.22,3.88.93,11.62.29,14.45C1509.23,661.9,1509.82,658.49,1510.18,651.87ZM1636.6,481.19a69,69,0,0,1-12.38-.23C1627.87,480.87,1632,480.91,1636.6,481.19Zm704.26,146.44c0-.17,0-.28-.05-.42C2341.23,618.56,2341.07,621.63,2340.86,627.63Zm-.47,18c.15,1.81.3,1.69.46.92a70.27,70.27,0,0,1-.22-9.88C2340.35,637.9,2340.15,640.23,2340.39,645.59ZM1652,1269.07l-3.49-.29C1656.37,1268.47,1654.16,1268.75,1652,1269.07Z"/><path class="cls-4" d="M1602.09,482.67a3,3,0,0,1-1.66-.59C1598.9,482.26,1598.87,482.48,1602.09,482.67Z"/><path class="cls-4" d="M1511.45,976.58l0,.61a2.08,2.08,0,0,0,.2.61Z"/><path class="cls-4" d="M2224,483.3a66.79,66.79,0,0,1-7.14-.56C2216.66,483,2218.34,483.23,2224,483.3Z"/><path class="cls-4" d="M2342.24,740.81,2342,729.3c.06,5.57-.18,7.56-.35,10.37C2341.85,739.41,2342.22,737.21,2342.24,740.81Z"/><path class="cls-4" d="M2335.53,840.72c.13,1.68,0,3.56.15,5.22l.5-.46C2336.15,838.32,2335.74,833.31,2335.53,840.72Z"/><path class="cls-4" d="M2338.63,751.47c-.91.91-.6,8.13-.43,16.19v-1.42C2339.48,768.61,2339.05,760,2338.63,751.47Z"/><path class="cls-4" d="M2338.23,769.53c0,2.49.07,5,0,7.46C2338.76,777.93,2338.36,774,2338.23,769.53Z"/><path class="cls-4" d="M2341,668.39c-.24,3.82,1.16,2.39.79,4.56C2343,677.22,2340.39,647.46,2341,668.39Z"/><polygon class="cls-4" points="2335.63 758 2336.75 755.11 2335.85 750.59 2335.63 758"/><path class="cls-4" d="M2336.45,694.34l-.31,12.88c.19-.2.3,1.44.39,3.45C2336.56,702.73,2336.79,694,2336.45,694.34Z"/><path class="cls-4" d="M2336.53,710.67c0,4.13,0,8.07.18,10.37C2336.7,718.8,2336.66,714,2336.53,710.67Z"/><polygon class="cls-4" points="2335.29 740.38 2335.53 736.58 2335.61 727.48 2335.29 740.38"/><path class="cls-4" d="M2336.67,555.85l-.32-14.06c-.39-1.43-.62,2.4-.47,7.63C2336.15,552.79,2336.3,558,2336.67,555.85Z"/><path class="cls-4" d="M2333.59,598.37a34.56,34.56,0,0,1,.85-6.2l-1.39-.43Z"/><path class="cls-4" d="M2333.26,557.37c-.38-1.4-1.11-20.41-1-2.59C2332.62,556.21,2332.94,570.29,2333.26,557.37Z"/><polygon class="cls-4" points="2202.26 479.48 2205.83 479.46 2205.32 477.17 2202.26 479.48"/><path class="cls-4" d="M2015.54,485c16.66.55,4-1.41,19-.73,3.91-.54-12.31-.55-8.3-1C2016.2,483.77,2010.92,483.45,2015.54,485Z"/><path class="cls-4" d="M2026.25,483.2l5.14-.35C2028.47,483,2027.1,483.1,2026.25,483.2Z"/><polygon class="cls-4" points="2306.1 1270.23 2316.81 1270.7 2309.9 1269.93 2306.1 1270.23"/><path class="cls-4" d="M2326.66,1268.53l2.53,1.46,6.43-1.32A67,67,0,0,1,2326.66,1268.53Z"/><path class="cls-4" d="M1513.12,622.11l-.35-.82c-.38,1.66-.41,4.17-.47,9.2Z"/><polygon class="cls-4" points="1512.03 767.42 1512.05 764.91 1510.74 769.59 1512.03 767.42"/><path class="cls-4" d="M1513.71,889.37c0-5-.24-10.83-.19-15.83C1513.76,884.39,1512.06,890.71,1513.71,889.37Z"/><path class="cls-4" d="M1531.3,1290.63c-4.77-.05-3.06.57-3.78.69C1535.5,1291.18,1531.1,1290.47,1531.3,1290.63Z"/><polygon class="cls-4" points="1610.08 1289.21 1608.68 1289.46 1620.3 1288.83 1610.08 1289.21"/><path class="cls-4" d="M1683.75,1289.22c-7-1.07-26.7.17-39.82-.21l-2.17-.24-5.92.86C1651.79,1289.49,1672.51,1288.92,1683.75,1289.22Z"/><path class="cls-4" d="M1723,1291.53c-2.42-.42,8.5-.36-9.15-.13l1.65.11Z"/><path class="cls-4" d="M1715.52,1291.51c-7.75,0,5.08.35,0,0Z"/><path class="cls-4" d="M1751.35,1291.27l-10.22.37c2.14.25,11.23.3,7.85.48C1759.47,1291.92,1757.31,1291.67,1751.35,1291.27Z"/><path class="cls-4" d="M1761,1290.49l-5.3.15A25.16,25.16,0,0,0,1761,1290.49Z"/><path class="cls-4" d="M1744.51,1291l11.23-.34c-1.48-.17-1.63-.51-5.15.12C1751.51,1290.45,1749.29,1290.75,1744.51,1291Z"/><path class="cls-4" d="M1738.16,1290.81c-5.74-.23-13.14-.38-2.88-.75C1715.73,1290.21,1718.61,1291,1738.16,1290.81Z"/><path class="cls-4" d="M1687.51,1288.11l-7.67-.31-6.63.36C1676.53,1288,1688,1288.45,1687.51,1288.11Z"/><path class="cls-4" d="M1815,1291.82c.64-.23-3.43-.61-4.2-.9l-7.54.27C1807.14,1291.34,1814.5,1291.48,1815,1291.82Z"/><path class="cls-4" d="M1810.81,1290.92l11.3-.39C1812,1290.49,1810.17,1290.67,1810.81,1290.92Z"/><polygon class="cls-4" points="1762.86 1289.3 1744.31 1290.12 1766.44 1289.29 1762.86 1289.3"/><polygon class="cls-4" points="1858.14 1291.85 1851.74 1292.38 1863.15 1291.58 1858.14 1291.85"/><path class="cls-4" d="M1886.76,1291.76c-4.74.43,6.49.74,1.48,1,7.77-.07,14.41-.45,20.39-.79C1902.28,1292.16,1895.51,1292.11,1886.76,1291.76Z"/><path class="cls-4" d="M1918.66,1291.48c-3.17.11-6.46.3-10,.49C1912,1291.87,1915.32,1291.73,1918.66,1291.48Z"/><path class="cls-4" d="M1841.34,1290.65a56.48,56.48,0,0,0,8.89.64l-4.44-.63Z"/><path class="cls-4" d="M1845.64,1290.63l.15,0,9.6,0Z"/><path class="cls-4" d="M1840.23,1290.64h1.11A2.76,2.76,0,0,0,1840.23,1290.64Z"/><path class="cls-4" d="M1792.47,1289.88c6.63-.36,20.47-.74,7.08-1.29C1794.79,1289,1802.45,1289.34,1792.47,1289.88Z"/><path class="cls-4" d="M1834.71,1289.84l-12-.14c.24.16,2.4.41-.88.59Z"/><polygon class="cls-4" points="1840.58 1289.64 1834.71 1289.84 1839.16 1289.9 1840.58 1289.64"/><path class="cls-4" d="M1898.11,1290.88c5.18-.27,10.85-.3,17.25-.34-6.86-.13-13.95-.2-20.69-.19C1893.72,1290.55,1890.76,1290.91,1898.11,1290.88Z"/><path class="cls-4" d="M1872.61,1290.71l1.15,0C1873.05,1290.62,1872.49,1290.6,1872.61,1290.71Z"/><path class="cls-4" d="M1978.4,1290.54l-1-.11-.24.11Z"/><path class="cls-4" d="M1893.52,1290.23a108.61,108.61,0,0,0-11.18.23l12.33-.11C1895.1,1290.26,1895.18,1290.2,1893.52,1290.23Z"/><path class="cls-4" d="M1936.24,1291.19l-8.93-.36A86.43,86.43,0,0,0,1936.24,1291.19Z"/><path class="cls-4" d="M1875.5,1290.85l-.77,0C1876.42,1291,1876.21,1291,1875.5,1290.85Z"/><path class="cls-4" d="M1875.5,1290.85c2.65-.09,4.74-.25,6.84-.39l-8.58.21C1874.4,1290.72,1875,1290.78,1875.5,1290.85Z"/><path class="cls-4" d="M1997.5,1286.43c-.91.6-14.47,1.14-26.18.51-11.52.44-4,2.39,6.07,3.49.36-.26.36-.5,12.21-.85-4.15-.33-26.3-.76-16.3-1.3,15.7-.3,12.87.21,20.5.53-6.49-.74,20-1.08,16.56-2.17l-13.77.39C1996.33,1286.86,2001.32,1286.59,1997.5,1286.43Z"/><path class="cls-4" d="M1954.8,1290.37l-4.88.07c5.56.1,9.54.34,16.87.8,8.12-.29,9.8-.51,10.36-.7l-24-.09Z"/><path class="cls-4" d="M1928,1290.44c3.81-.64,15.52-.92,8.35-1.62-14.32,0-10,.54-18.58.82,23.1-.16-6.64.36,10,.73l-12.48.17,12,.29-.53,0h-.08c-1-.08-1.33-.12-.2-.08h.48a4.45,4.45,0,0,1,1-.25c6.69.14,1,.17-1,.25a1.54,1.54,0,0,0-.28.09h.08l23.14-.35C1945,1290.35,1938.89,1290.37,1928,1290.44Z"/><path class="cls-4" d="M1811.9,1287.2c.71.06.68.11.73.15C1814.13,1287.27,1814.7,1287.22,1811.9,1287.2Z"/><path class="cls-4" d="M1821.42,1287.59a76.9,76.9,0,0,1-8.56.28c-4.74-.19,0-.3-.23-.52-3.29.17-11.53.47-1.19.78l1.63-.09c9.32.22,21.29,1,19.66,1.12A84.79,84.79,0,0,0,1821.42,1287.59Z"/><path class="cls-4" d="M1875.38,1288.85l19.27-.31-9.81-.56.5.33C1874.38,1288.18,1876.75,1288.59,1875.38,1288.85Z"/><polygon class="cls-4" points="1980.6 1290.86 1978.05 1291.55 1989.18 1290.58 1980.6 1290.86"/><polygon class="cls-4" points="2005.64 1290.78 2004.72 1291.38 2011.33 1291.02 2005.64 1290.78"/><path class="cls-4" d="M2038.32,460.18l-5.66.17Z"/><path class="cls-4" d="M2079.32,460.22l1-.29C2078.42,460.09,2077.65,460.21,2079.32,460.22Z"/><path class="cls-4" d="M2317.09,979.68c.56-8.24,1.42-17.46.75-16.46l-.65,2.53C2317.31,971.51,2317.23,975.93,2317.09,979.68Z"/><path class="cls-4" d="M2313.21,558.48c-.06.79-.13,1.61-.19,2.42.22,2,.43,3.88.62,5.57C2313.51,564.07,2313.36,561.34,2313.21,558.48Z"/><path class="cls-4" d="M2310.52,552.66l.42-10.87C2310.8,544.24,2310.66,547.73,2310.52,552.66Z"/><path class="cls-4" d="M1814.44,460.87l-6.6.66C1818.17,461.53,1813.62,461.19,1814.44,460.87Z"/><path class="cls-4" d="M2262.12,1290.54c7.12.26,12.78.36,17.76.39C2271.3,1290.56,2264.39,1290,2262.12,1290.54Z"/><path class="cls-4" d="M2054.46,453.28c-3.47.12-4.95.25-4.85.39C2053.18,453.56,2055.2,453.44,2054.46,453.28Z"/><path class="cls-4" d="M2300.43,1290.93l-3.76-.15c-5.2.11-10.44.2-16.79.15A192.86,192.86,0,0,0,2300.43,1290.93Z"/><path class="cls-4" d="M1531.23,981.66c0,.59-.06,1.3-.08,1.83C1531.24,983.67,1531.24,982.86,1531.23,981.66Z"/><path class="cls-4" d="M1524.67,1218.21c0-2.33,0-6.13-.05-9.72C1524.57,1210.24,1524.58,1213.17,1524.67,1218.21Z"/><path class="cls-4" d="M2106.4,1291.07c-5.31,0-.84.07,0,0Z"/><path class="cls-4" d="M2080.57,1288.5a6.39,6.39,0,0,0,2.13-.32A9.72,9.72,0,0,1,2080.57,1288.5Z"/><path class="cls-4" d="M2313.27,1247v-.46C2313.14,1248.13,2313.16,1247.86,2313.27,1247Z"/><path class="cls-4" d="M2098.41,1290.77l6.79.19Z"/><path class="cls-4" d="M2099.49,1291.08l-4.65-.07C2094.17,1291.12,2094.77,1291.19,2099.49,1291.08Z"/><path class="cls-4" d="M2113.8,1291l-8.6-.07c1.05,0,1.48.08,1.2.11Z"/><path class="cls-4" d="M1529.49,546.6c0,.36,0,.76-.06,1.14C1529.7,553.1,1529.65,550.75,1529.49,546.6Z"/><path class="cls-4" d="M2310.34,841.46c0,.24,0,.38,0,.6,0-.25,0-.56,0-.78Z"/><path class="cls-4" d="M2309.86,822.38a128.4,128.4,0,0,1,.54,18.9l1.87-6.31Z"/><path class="cls-4" d="M1940.17,460.37l13.4.58c-16.17,1-27.87.63-15.29,1.45,1.89-2,52.07-.21,53.93-2.24l8.83.43-5.44.08c17.18,1,12.76-1.47,34.89-1.18,7.71.15,13.09.45,7.83.69l17.19-.51c5,0,3.78.4-1.2.36l26.21-.16-.2.06c3.74-.32,12.22-.82,16.35-1,6.66.3-3.34.22-1.63.47l14.51-.49c5.91.53-6.12,1-16.14,1,13.55,2,12-.51,41.29.68l-13.7.26c8.83,1.15,19.52.73,35,1.45-3.68-.37-31-1.81-15.27-2.32,4.44.16,10.29.23,18.79-.18.08.72,8.37.54,18.75.5l-.71,1c11.23-.27,10.34-.76,17-1.19,12.5.09,15.1.83,18,1.46,20,.15-13.83-1.19,9.88-1.37,16.66.36,28.36,0,48.29-.6,11.66.33-2,.58,2.14.86l10.34-.77c2.53,0,1.71.26,1.3.38,8.71-.3.72-1,14.41-1.22a23.41,23.41,0,0,1,5.12-.25l4,.13,3.1.21c-.05.73-.1,1.49-.15,2.27l-.08,1.1c0,.58-.05,1.17-.07,1.76-.08,2.56-.15,5.21-.23,7.87-.1,5.31-.06,10.65.28,15.41-.27,4.18-.59-2-1-.74.79,23.25.57,19.94,1.63,39l-.63,16.26c.72-11.95,1.57,3.32,2.27,16.69.33-4.24.61-7.87.8-10.29l.51,21.35c-.15,2.57-.48.42-.88-3.07.08,1.45.16,2.83.23,3.91-.36,7.63-.91,3.67-1.45-1.8.2-2.59.4-5.17.6-7.68-.59-5.27-1.23-10.21-1.79-9.11.11,1.39.2,4.06.26,7-.16-1.38-.3-2.26-.4-1.62a63.75,63.75,0,0,0,.36,6.44l-1.07,4.85.42,1.18-.67,27.92c1.08,20,2.66,37.36,3.1,69.06-.78-7.86-1.28-1.69-2.2-2.11,1-8.66-.42-24.56-.22-41-.11,8.58-.55,6.69-.7,4.51l.89,29.31c-.76-.66-.57,6.22-.88,13.88,1.5-5.79,1,21.85,1.46,33.78-.51.73-1-2.12-.9-16.67-1.13,16,1.76,20.74.8,36.5a48.34,48.34,0,0,0-.19-6.88c.45,8.3.1,28.59-.34,23.82v-3.55c-.18,23.59,0,71.8,1.26,75.32-.17.24-1.54-3.09-1.79-4.52l4.28,42.09c-1.09-3.71-3.7,10.52-4.32-9-.15,5.62-.33,12.57.05,24.4.16-3.83,1.59-9.54,1.69-4.31-1.22,14.37-.66,10-1.69,27.69.23-5.74,1.95.64,1.89,9.71-.26-1.41-1.69.76-1.87-2.56l1.68,22.59c-.3-5.64-1.43-1-1.9,4.06.33-2.35,0,19.52.14,25.54l.39-9.57c-.26,25.5,2.36,25.19,2.28,50.49-.35-3.06-2.15-7.56-2.36,5.3a405.61,405.61,0,0,1,4.82,48.5l-.5,4.29.57,17.17c-1.3-10.69-4-40.7-5.1-57.09-.39,9.54-.58,2.66-.54,17-.46,5-.7-7.79-.72-12l-.3,33.28c1-1.48,1,25.45,1.85,24.18l-1.05-36.14c1-1.47,2.86,20.89,2.68,44.47-.39,6-1.79-4.49-2.12-4,.34,3.06.66,22.38.41,24.55l-.54-10c-.37,13.12,1.34,21.42.38,37.19-.07,5.44-1.3,16.25-.7,17.2,1.15-8.88,4.7-10.62,5.57-4.7-.08,1.91-1.1,28.58-1.67,34.8-.9,9-2.15-13.46-2.92-5.83.27.33.61,5.28.72,7.35-.23,5.71-.85-2.37-.73,10,1,2.08-.08,25.27.87,5.88.29,12.15-.21,12.91-.17,27.18.66-4.54,2.25,12.81,2.54,25-.26-.72-.6,2-.75,3.34-.07,8.11-.13,15-.18,21.41-.09,6.23-.17,12-.25,18l-21-.14c-2.14-.25-13.35-.55-8.58-1-3.34.18-6.41.52-13.58.55-13.86-.89,16-.14,5.41-1.2-.9.59-18.53.82-28.73,1.19,3.14.91,23.57.17,33.79-.2.05,1.27-17.74,2.59-42,3.18-19.29.31-8.36-.82-11.71-.64-36.25-.22-30.88,2.21-61,1.29-12-.8-.54-1.6-3.19-2.18,15.72-.3,24.13.51,34.78.48l-13.11-.38c5-.27,15.49-.47,21.21-.24-10-.72-61.23-.14-89.19-.8-5,.27-13.55.54-9.49.87l8.85-.11c8.13.65-16.65.89-5.45,1.2-11.87.45-25.18,1.17-41.88.8l-3.14-.91c.35.26,10.92.54,15.61.26-7,.41-25.62-1.24-33.25,0l11.71.64c-11.91.46-26.64,1.44-41.45,1.15,6.74.9,3.42-.11,13.94,1-9.12-1.32,37.88.06,23.22-1.33,10.8,1.23,18.69.52,32.8,1.57-.43-.3-5-.58,7.43-.43.56-.08,1.89-.2,2.73-.26l.84,0-.69,0c.54,0,.59,0-.25,0-3-.13-5.36-.29-6.33-.46,6.17-.7,25.93-.67,32.62-1,7.37.14-3.09.34.94.67l10-.54c1,.67,19.59,1.12,2.21,1.51l15.65,0c9.2.38,21.87.53,29.68.25,7.37.14,18.63-.75,12.2-.22l24.53-.42.23.17c24.2.08,49.81-1.12,77.48.1l7.78-.16,12.45-.1v-9.76c0-2.25,0-4.67.07-7.28l.58-2.66c-.2-10.46.59-31.41,0-35.91,1.57-11.28.34-50.77.62-69.16l-.76-.7c0-12.66-.17-24.8-.48-40.52l-.67,1c-.55-13.56.48-34.85.41-56.28a87.69,87.69,0,0,1,0,10.74c1.52-25.61-1.1-54,0-77.26-.24-5.79-.16-10,0-14,0,.54,0,1,0,1.44,0-.59,0-1.47,0-2.38.11-2.55.23-5.19.35-8-.16,2.43-.29,4.75-.36,6.77,0-4.47-.09-11.24-.26-17.87l.72-2.83c0-.54,0-1,0-1.53.27-6.51-.34-5.24-.88-1.76-.12-3.34-.27-6.41-.44-8.78,1.16-5.29-.39-17.41.85-24.63-.61-4.47-.46-33.36-1.73-36.9.17-.22.24-2.18.25,1.4.15-7.39.29-14.79-.06-21.42l.91-3.14-1.23-16.15c.56-9.82.88-13.89,1.59-4.14-1.09-23.53-.41-19.09-1.48-39.1l.59,1c0-7.15-.82-18.58-.33-22.9,1.13-16,.16-79.17,1.2-120.24-1.74,8,.79-19.09-.57-20.71.42-2.4.65-8.12,1-1.47-.41-21,.65-31.49-.49-46,.42-2.4.61,4.48.85,2.35a75.19,75.19,0,0,1-.11-8.84c.25-2.13.35,3.07.53,6.39-.07-21.41-1.34-23.58-2.54-25.14.57-10.85.49-16.26-.3-24.1.39-3.77.8-10.08.94,3.23.06-7.49.58-45.72-.38-46.48.24-2.35.07-10.47,0-12.44,0-8.39.06-13,.08-17.49,0-4.8,0-9.55,0-18.27l-.16,5.57c-.1-.59-.18-1.14-.26-1.77s-.11-1.49-.17-2.25c-.1-1.5-.14-3-.16-4.68l-4.77,0-4.89-.09c-3.2-.07-6.85-.13-11.14-.09l.38-.11c-30.48-.84-13.16.39-43.23-.56l1.63.72c-2.8,1.55-26.64-.91-44.1-.32l6.3.41c-9.53.53-26.64-2.1-36.22-2.29-2.08-.14,3.3-.22,6.21-.32-25.06-.91-3.25.94-21.92,1.16-3.45-.51,4.43-1.29-8.13-1.38-6.27-.41-36.47,1.64-53.62.67,3.78.39,7.53.78-1.14,1.08-13.3.14-35.95-1.48-48-.25a7.49,7.49,0,0,1-2.4-.31c-10.16.32-33,.53-39.15,1.2-9.39-2.48-63.19,1.21-63-1.08l-31.26.12.81-.23c-20-.15-27,.4-34.07.95-4.62-.16-1.25-.37-.87-.49-29.2-.47-32.1-.37-56.58.77l-2.55-.74c-6.64.43-42.22-1.16-70.86-.3a14,14,0,0,1,3.15-.33c-32.22.87-77.14-2.06-89,.64l-21.26.67c27.51.21-4.1,1.17,7.22,1.62-10.82.16-28-.81-14.68-1l2.08.13c4.89-1.41-34.18-.5-33.44-1.46l-39.64-.08-41.82-.24q-.23,41.56-.45,81.65l1.1-5.85-.06,17.69c-.26,4.64-.86,6.23-.82-6.39-.62,6.64.52,21.17.76,21.53-.44,24.7-1.28-9.65-1.3-2.08l.08,10.29.13-2.32c.45,8.34.92,9.08.87,24.25-.22,9.59-.68,4.92-.72,8.7,0,0-.07.3-.08,1.18s0,2.34,0,4.61l-.1,22.29.87-8.91c.42,9.87,0,21,.93,10.67-1.51,15.09-.54,83.12-1,92.39.63,13.83.62,27.49.55,44.4.18-4.2,1.15-6.72,1,7.87-2-5.33-.87,26.72-2.32,38.51,1-10.54.24,41.48,1.6,24.94-.16,12.18-.75.74-1.22,10,.77,29-.51,63.85-.25,99.67.27.56.67-5.44,1.06,2.24l-1.32,18.91c.13,7.07,1.53,6.51.61,19.43.22-1.82.56-4.55.64.2-1.28,70.16,1,143.37-1.36,214.62.51-9.65.56-3.22.58,4.15.12-4.79.65.11,1-.83l-1,29.83c1,5.44.06,32,1,35.1l-.17-9.45c1.12,12.57,2.49-17.58,3.92-15.74-1.27-14.07,1.89-37.09.06-60.17.3-5.09.47,4.35.8,1.62-.62-5.85-.74-12.91-.47-26l.15,1.48c-.15-36.78.46-52.55.87-93.87l-.71,3.06c.09-8.88.31-10.75.49-14.9-1.08-10.2-.06,24.93-1.25,15.65,1.45-11.78,0-62.62,1.67-70.58,0-13.66-.83,4-.82-9.65l.45-3.62-.57-3.45c.09-9,.65-13.47,1-13.81,0,2.17.11,6.18.14,8.51.52-11.62-.18-32.75,0-36.74l-.27,13.13c-.42-37.28.17-82.8-.74-118.81l-.33,2.73c-.62-27.5.36-22,.08-52.23l.08,1.1c-.34-6-.5-14.11-.47-22.38.4,7.63.77-14.34,1.2-4.34-.66-29.82-.52-14.75-1.77-34.45l.56-4.54a220.11,220.11,0,0,1-.91-22.36c.47,12.37.84-9.62,1.47,4.23,1.22-31.64-1.22-47,.55-61.51-1.53-14.53-.85,27.39-1.18,19.25-.5,6.82-1.15-12-1-21.93,0-10.11,2-17.19,1.93-42.62,0,2.53.06,2.71.11,5.23.39-9.52-.53-18.65.1-30.32-.93-6.55.06-15.16-1.13-17l.28,23.32c-.31-13.22-1.7-25.62-1-47.41.24,1.7.55,8.18.73,12.63.35-6.37-.23-12.26.13-18.87,1.18,1.89.25,28.35,1.16,42.52.5-6.84-.86-26.8.43-19.68-1.64-10.23.2-25.06-1-42.28l.72,1.14c-.12-2.73-.45-8.37-.43-13.39l.92,9.08c-.79-13.94.68-26.88.26-40.25,0,28-.86,6.28-1.38,18.12-.22-7.93-.24-13.26-.14-17.24,0-1,.06-1.91.09-2.76l0-.61,0-.31c0-.2,0-.39.07-.58a13.17,13.17,0,0,1,.32-1.74c1.31.57,8.52,1.3,29,1.12-5.23.1-19.65-.43-11.46-.76,7.36.15,17.08.42,21.6.8,25.62-.15-3.94-.74,7-1.17,8.72.86,12.58-.35,23.81-.63l.08.72c29.19.46,7.74-1.51,34-.95l-11.11,1,13.7-.26-2.82.82c14.9-.61,19.54-.45,34.15-.22-3.4-.51,1.91-1.31,14.84-1.34,8.81.43-4.94.69,13.39.59a75,75,0,0,1-16.65.35c-.82.24-4.08.46-4.92.69,9.49.49,23.86.11,30.5.1-2.56,0-5.61-.06-7.18-.16l26.57-1c4.19.28.87.49-2.42.71,5.38-.08,9.11-.41,17-.48-2,.59-1.56,1.2-12.76,1.47l25.32-.65c1.69.26,13,.7,9.7.92,14,.35,34.43-1.14,53-.68,1-.12,2.91-.23,6.87-.31,17.48.13,33,.85,53.7.05l11.76,1c16.24-.24-15.92-1.33,11.11-1.72,19.14-.34,7.15.9,13.86,1.19,9.51-.53,26.06-1.61,43.64-.76C1950.17,460.44,1945.61,460.29,1940.17,460.37Zm200.2-.47c-3.88.15-11.61.62-14.45.19C2130.34,459.26,2133.75,459.66,2140.37,459.9ZM2311.82,588a102.13,102.13,0,0,1,.16-12.38C2312,579.23,2312,583.37,2311.82,588Zm-147.2,702.52.41,0C2173.68,1290.72,2170.61,1290.61,2164.62,1290.48Zm-18-.32c-1.81.1-1.68.2-.92.31,1.25-.19,5.29-.2,9.88-.15A55.94,55.94,0,0,0,2146.65,1290.16Zm-622-686.83.19-3.49C1525,607.73,1524.83,605.52,1524.62,603.33Z"/><path class="cls-4" d="M2310.83,553.45a4.15,4.15,0,0,1,.4-1.66C2311.11,550.27,2311,550.23,2310.83,553.45Z"/><path class="cls-4" d="M1815.66,460.75h-.61a2.1,2.1,0,0,0-.61.13Z"/><path class="cls-4" d="M2310.41,1175.36c.11-3.7.24-5.76.38-7.14C2310.61,1168,2310.46,1169.7,2310.41,1175.36Z"/><path class="cls-4" d="M2051.43,1291.39l11.51-.19c-5.57,0-7.55-.12-10.36-.23C2052.83,1291.14,2055,1291.38,2051.43,1291.39Z"/><path class="cls-4" d="M1951.53,1286.92l-5.23.1.46.33C1953.93,1287.33,1958.93,1287.06,1951.53,1286.92Z"/><path class="cls-4" d="M2040.77,1289c-.91-.61-8.13-.4-16.19-.29H2026C2023.63,1289.55,2032.22,1289.27,2040.77,1289Z"/><path class="cls-4" d="M2022.71,1288.72l-7.45,0C2014.31,1289.08,2018.28,1288.81,2022.71,1288.72Z"/><path class="cls-4" d="M2123.86,1290.57c-3.82-.16-2.4.77-4.57.53C2115,1291.87,2144.79,1290.16,2123.86,1290.57Z"/><polygon class="cls-4" points="2034.25 1286.99 2037.14 1287.74 2041.65 1287.13 2034.25 1286.99"/><path class="cls-4" d="M2097.91,1287.54l-12.89-.21c.2.13-1.44.2-3.45.26C2089.51,1287.61,2098.21,1287.76,2097.91,1287.54Z"/><path class="cls-4" d="M2081.57,1287.59c-4.13,0-8.07,0-10.37.12C2073.44,1287.7,2078.25,1287.68,2081.57,1287.59Z"/><polygon class="cls-4" points="2051.86 1286.76 2055.67 1286.92 2064.76 1286.97 2051.86 1286.76"/><path class="cls-4" d="M2236.39,1287.68l14.06-.21c1.44-.26-2.4-.42-7.63-.32C2239.45,1287.33,2234.24,1287.43,2236.39,1287.68Z"/><path class="cls-4" d="M2193.87,1285.63a49.62,49.62,0,0,1,6.21.57l.42-.93Z"/><path class="cls-4" d="M2234.87,1285.41c1.41-.26,20.41-.74,2.59-.68C2236,1285,2222,1285.2,2234.87,1285.41Z"/><polygon class="cls-4" points="2312.97 1153.62 2312.98 1157.19 2314.5 1156.68 2312.97 1153.62"/><path class="cls-4" d="M2309.31,966.9c-.36,16.66,1,4,.49,19,.36,3.91.37-12.31.68-8.3C2310.1,967.56,2310.32,962.28,2309.31,966.9Z"/><path class="cls-4" d="M2310.48,977.61c.08,1.61.15,3.32.24,5.14C2310.62,979.83,2310.55,978.46,2310.48,977.61Z"/><polygon class="cls-4" points="1523.85 1257.46 1523.53 1268.17 1524.05 1261.26 1523.85 1257.46"/><path class="cls-4" d="M1525,1278l-1,2.53.88,6.43C1524.85,1284.56,1524.76,1279.87,1525,1278Z"/><path class="cls-4" d="M2170.13,461.86l.82-.24a80.77,80.77,0,0,0-9.19-.31Z"/><polygon class="cls-4" points="2024.83 461.13 2027.33 461.15 2022.65 460.27 2024.83 461.13"/><path class="cls-4" d="M1902.88,462.25l15.82-.12C1907.85,462.29,1901.53,461.15,1902.88,462.25Z"/><path class="cls-4" d="M1467.65,522.75c-.38-4.75-.85-3-1-3.7C1467.5,527,1467.8,522.54,1467.65,522.75Z"/><polygon class="cls-4" points="1476.31 601.07 1475.92 599.7 1477.61 611.21 1476.31 601.07"/><path class="cls-4" d="M1483.06,674.43c.42-7-2.62-26.57-3.45-39.67l0-2.18-1.4-5.82C1479.85,642.64,1482.32,663.21,1483.06,674.43Z"/><path class="cls-4" d="M1484.36,713.75c.19-2.45,1.14,8.43-.71-9.13,0,.89,0,1.14,0,1.66C1483.84,707.86,1484,710,1484.36,713.75Z"/><path class="cls-4" d="M1483.7,706.28c-.75-7.72.11,5.09,0,0Z"/><path class="cls-4" d="M1487.22,741.94l-1.31-10.14c0,2.14.74,11.2.25,7.86C1487.32,750.08,1487.37,747.91,1487.22,741.94Z"/><path class="cls-4" d="M1488.89,751.51l-.64-5.26A24.84,24.84,0,0,0,1488.89,751.51Z"/><path class="cls-4" d="M1486.89,735.1l1.36,11.15a10.84,10.84,0,0,0-.6-5.12C1488.05,742,1487.55,739.83,1486.89,735.1Z"/><path class="cls-4" d="M1486.46,728.76c-.29-5.74-.82-13.12.49-2.94C1485,706.36,1484.52,709.3,1486.46,728.76Z"/><path class="cls-4" d="M1484.5,678.07l-.39-7.66-1-6.57C1483.63,667.12,1484.21,678.57,1484.5,678.07Z"/><path class="cls-4" d="M1492.52,805.38c.28.61.28-3.48.5-4.26l-1-7.5C1492.27,797.5,1492.8,804.84,1492.52,805.38Z"/><path class="cls-4" d="M1493,801.12l1.43,11.21C1493.57,802.28,1493.21,800.46,1493,801.12Z"/><polygon class="cls-4" points="1490.24 753.22 1487.72 734.82 1490.58 756.78 1490.24 753.22"/><polygon class="cls-4" points="1496.45 848.33 1495.34 842 1497.17 853.29 1496.45 848.33"/><path class="cls-4" d="M1499.17,876.81c-.87-4.67-.14,6.54-.87,1.58.79,7.73,1.77,14.3,2.66,20.22C1500.19,892.31,1499.61,885.56,1499.17,876.81Z"/><path class="cls-4" d="M1502.37,908.56c-.4-3.15-.89-6.41-1.41-9.95C1501.37,902,1501.82,905.25,1502.37,908.56Z"/><path class="cls-4" d="M1496.1,831.49a55.72,55.72,0,0,0,.17,8.91l.23-4.48C1496.38,834.57,1496.24,833,1496.1,831.49Z"/><path class="cls-4" d="M1496.51,835.76v.16c.43,4.8.72,8.13.85,9.56C1497.24,844.25,1497,841.33,1496.51,835.76Z"/><path class="cls-4" d="M1496,830.38c0,.41.07.71.1,1.11A2.61,2.61,0,0,0,1496,830.38Z"/><path class="cls-4" d="M1492.38,782.75c1,6.58,2.62,20.32,1.93,6.94C1493.44,785,1493.83,792.65,1492.38,782.75Z"/><path class="cls-4" d="M1496.3,824.81l-1-12c-.15.25-.2,2.43-.67-.83Z"/><polygon class="cls-4" points="1497.04 830.64 1496.3 824.81 1496.65 829.24 1497.04 830.64"/><path class="cls-4" d="M1501.08,888c.75,5.13,1.29,10.78,1.93,17.15-.51-6.85-1.09-13.92-1.71-20.63C1501,883.64,1500.38,880.72,1501.08,888Z"/><path class="cls-4" d="M1498.91,862.63c0,.36.1.81.15,1.14C1499,863.07,1499,862.5,1498.91,862.63Z"/><path class="cls-4" d="M1508.79,968c0-.35,0-.66,0-1,0-.08-.08-.13-.13-.22Z"/><path class="cls-4" d="M1501.31,883.41c-.35-5.15-.79-8.21-1.25-11.11.38,3.83.8,7.9,1.24,12.26C1501.43,885,1501.5,885.05,1501.31,883.41Z"/><path class="cls-4" d="M1504.28,926c-.14-2.69-.3-5.73-.47-8.93A87.23,87.23,0,0,0,1504.28,926Z"/><path class="cls-4" d="M1499,865.52c0-.25-.06-.49-.1-.76C1499,866.45,1499,866.24,1499,865.52Z"/><path class="cls-4" d="M1499,865.52c.33,2.64.68,4.7,1,6.78-.37-3.12-.71-6-1-8.53C1499.07,864.41,1499.06,865.06,1499,865.52Z"/><path class="cls-4" d="M1514.64,986.6c-.68-.85-2.47-14.31-2.91-26-1.5-11.43-2.75-3.75-2.92,6.36.29.33.53.31,2,12.08-.06-4.16-1.66-26.26-.21-16.35,1.75,15.61,1,12.83,1.36,20.46.14-6.53,2.91,19.8,3.68,16.29L1514,985.75C1514.11,985.47,1514.83,990.42,1514.64,986.6Z"/><path class="cls-4" d="M1506.8,944.44l-.52-4.85c.41,5.55.54,9.54.74,16.88,1,8,1.41,9.71,1.66,10.25l-2.12-23.93Z"/><path class="cls-4" d="M1504.27,917.78c1,3.74,2.34,15.38,2.37,8.17-1.35-14.25-1.45-9.94-2.52-18.43,2.28,23-1-6.58.2,10.08-.48-4.52-.91-8.58-1.31-12.41.28,4.15.55,8.15.8,11.92,0-.21,0-.35,0-.53v-.08c0-1,0-1.33.07-.21,0,.08,0,.35.05.48a4.07,4.07,0,0,1,.34,1c.48,6.68-.07,1.07-.34-1,0-.08-.08-.25-.12-.27v.08l2.48,23C1505.92,934.71,1505.34,928.6,1504.27,917.78Z"/><path class="cls-4" d="M1496.83,801.85c0,.72,0,.69-.08.75C1497,804.08,1497.07,804.64,1496.83,801.85Z"/><path class="cls-4" d="M1497.31,811.37a77.7,77.7,0,0,1-1.06-8.5c-.24-4.74.31,0,.5-.27-.48-3.26-1.52-11.44-.89-1.12l.24,1.62c.64,9.3.93,21.29.7,19.68A85.32,85.32,0,0,0,1497.31,811.37Z"/><path class="cls-4" d="M1501,865.22l2.09,19.16-.34-9.82-.29.52C1501.59,864.16,1501.4,866.55,1501,865.22Z"/><polygon class="cls-4" points="1508.67 970.18 1507.76 967.7 1509.74 978.7 1508.67 970.18"/><polygon class="cls-4" points="1511.05 995.11 1510.38 994.24 1511.34 1000.79 1511.05 995.11"/><path class="cls-4" d="M2341.15,951.4l-.69-5.63C2340.79,948.43,2341,950.14,2341.15,951.4Z"/><path class="cls-4" d="M2344.87,992.22l.38,1C2344.92,991.32,2344.73,990.56,2344.87,992.22Z"/><path class="cls-4" d="M1849.43,1276.68c8.26-.2,17.52-.19,16.46-.77l-2.58-.41C1857.58,1276.14,1853.18,1276.48,1849.43,1276.68Z"/><path class="cls-4" d="M2268.49,1234.15l-2.41,0-5.49,1.13Z"/><path class="cls-4" d="M2274,1230.94l10.87-.58C2282.46,1230.43,2279,1230.62,2274,1230.94Z"/><path class="cls-4" d="M2319.91,728.52l-1.27-6.51C2319.6,732.3,2319.51,727.74,2319.91,728.52Z"/><path class="cls-4" d="M1534.84,1250.48c.4,7.11.81,12.76,1.24,17.72C1535.66,1259.63,1535.58,1252.69,1534.84,1250.48Z"/><path class="cls-4" d="M2349.5,966.83c-.44-3.44-.7-4.9-.84-4.79C2349.1,965.58,2349.41,967.58,2349.5,966.83Z"/><path class="cls-4" d="M1538,1288.67c-.07-1.26-.13-2.49-.2-3.76-.58-5.17-1.15-10.38-1.69-16.71A191.88,191.88,0,0,0,1538,1288.67Z"/><path class="cls-4" d="M1775.32,494.32l-1.84.09C1773.31,494.51,1774.12,494.44,1775.32,494.32Z"/><path class="cls-4" d="M1539.16,509.5l9.67-.94C1547.09,508.68,1544.17,509,1539.16,509.5Z"/><path class="cls-4" d="M1520,1095.47c-.53-5.29-.15-.83,0,0Z"/><path class="cls-4" d="M1520.21,1069.51a6.32,6.32,0,0,0,.51,2.09A8.28,8.28,0,0,1,1520.21,1069.51Z"/><path class="cls-4" d="M1582.88,1297.41l.46,0C1581.75,1297.39,1582,1297.39,1582.88,1297.41Z"/><path class="cls-4" d="M1519.58,1087.48c.13,2,.27,4.29.43,6.78C1519.94,1093.17,1519.81,1091.11,1519.58,1087.48Z"/><path class="cls-4" d="M1519.37,1088.58c-.14-1.82-.25-3.26-.36-4.63C1518.84,1083.3,1518.83,1083.89,1519.37,1088.58Z"/><path class="cls-4" d="M1520.73,1102.83c-.25-3-.49-5.85-.72-8.57,0,1,.06,1.49,0,1.21Z"/><path class="cls-4" d="M2208.37,452.65l-1.14,0C2201.92,453.45,2204.26,453.19,2208.37,452.65Z"/><path class="cls-4" d="M1986.46,1257.27l-.61.09.79,0Z"/><path class="cls-4" d="M2005.41,1255a129.44,129.44,0,0,1-18.77,2.27l6.45,1.29Z"/><path class="cls-4" d="M2332,853.67l.65,13.4c-2.44-16-3.19-27.69-2.85-15.1,2.2,1.7,5,51.84,7.18,53.5l.39,8.84c-.27-2.52-.31-2.92-.58-5.41.61,17.19,2.64,12.57,4.38,34.63.55,7.69.75,13.08,0,7.87l2.08,17.06c.42,5-.05,3.8-.47-1.16l2.57,26.08-.08-.18c.67,3.69,1.94,12.08,2.52,16.18.32,6.66-.52-3.3-.61-1.58l1.82,14.4c0,5.94-1.6-6-2.44-16-.78,13.68,1.61,11.94,3.12,41.18l-1.52-13.63c-.34,8.91,1.06,19.52,1.77,35,0-3.69-1-31,.91-15.41.25,4.43.72,10.26,1.9,18.69-.71.14.23,8.38,1.22,18.72l-1-.62c1.31,11.15,1.71,10.22,2.75,16.76,1,12.47.55,15.12.2,18.11,1.69,20-.08-13.89,2.27,9.71,1.17,16.62,2.63,28.23,5,48,.74,11.64-.77-2-.66,2.21l1.71,10.22c.22,2.52-.09,1.73-.25,1.33,1.1,8.65,1,.63,2.54,14.24a23.79,23.79,0,0,1,.71,5.07c.07,1.18.16,2.52.24,4,0,1,.05,2,.08,3.11l-2.27,0-1.11,0-1.76.09-7.85.49c-5.3.4-10.62.92-15.33,1.7-4.18.11,2-.77.65-1-23.08,2.92-19.8,2.4-38.71,5.21l-16.25.87c12-.38-3.16,1.87-16.42,3.79l10.33-.15-21.21,2.47c-2.58.08-.47-.45,3-1.17l-3.88.59c-7.63.35-3.74-.56,1.65-1.6l7.72-.12c5.19-1.06,10-2.15,8.9-2.61-1.38.24-4,.58-6.95.9,1.36-.29,2.23-.51,1.58-.54a63,63,0,0,0-6.38.94l-4.93-.62-1.13.53-27.87,1.9c-19.79,2.91-37,6.08-68.49,9.43,7.76-1.5,1.57-1.43,1.91-2.39,8.71.18,24.42-2.68,40.8-4-8.55.69-6.71.08-4.55-.28l-29.11,3.58c.59-.81-6.25,0-13.9.4,5.9,1-21.67,3-33.5,4.55-.78-.43,2-1.21,16.52-2.42-16.09.35-20.5,3.66-36.27,4.15a50,50,0,0,0,6.82-.82c-8.22,1.21-28.45,2.71-23.74,1.84l3.53-.34c-23.51,2-71.5,6.58-74.89,8.18-.25-.15,2.94-1.82,4.34-2.2l-41.52,8.13c3.6-1.43-10.82-2.72,8.6-5.13-5.6.36-12.54.81-24.29,2.29,3.83-.2,9.65.7,4.45,1.28-14.42.1-10,.26-27.73.85,5.74-.29-.46,2-9.49,2.78,1.38-.38-.91-1.61,2.37-2.1l-22.33,3.76c5.58-.82.86-1.52-4.22-1.53,2.37.12-19.45,1.76-25.43,2.48l9.57-.49c-25.42,2.09-24.86,4.68-50.07,6.91,3-.63,7.34-2.83-5.49-1.86a406.77,406.77,0,0,1-47.85,9.25l-4.32-.1-17,2.14c10.53-2.28,40.16-7.75,56.39-10.32-9.54.49-2.7-.33-16.93,1-5.07,0,7.69-1.42,11.88-1.83l-33.17,2.76c1.57.87-25.24,3.34-23.9,4.06l35.89-4.36c1.55.87-20.54,4.77-44,6.75-6,.16,4.3-2.19,3.78-2.48-3,.62-22.22,2.71-24.4,2.66l9.91-1.45c-13.1.83-21.21,3.3-37,3.79-5.42.43-16.31.2-17.19.88,9,.33,11,3.71,5.19,5.11-1.91.1-28.57,1.53-34.81,1.54-9-.08,13.21-3.38,5.54-3.45-.31.31-5.2,1.1-7.25,1.4-5.71.29,2.28-1.07-10.08.2-2,1.2-25.17,2.23-5.77,1.39-12.07,1.41-12.88,1-27.08,2.34,4.58.24-12.56,3.41-24.65,4.82.69-.33-2.07-.41-3.4-.45l-21.33,1.79-18,1.41c-.55-6.34-1.12-13.06-1.79-20.94,0-2.15-.68-13.34.19-8.63-.49-3.31-1.11-6.33-1.79-13.46-.4-13.89,1.6,15.89,1.69,5.27-.68-.85-2.52-18.38-3.83-28.5-.62,3.21,2,23.49,3.3,33.63-1.26.17-4.21-17.43-7-41.55-2.08-19.18,0-8.4-.44-11.72-3.11-36.11-5-30.55-6.89-60.6-.29-12,1.55-.68,1.89-3.37,1.74,15.62,1.7,24.07,2.71,34.68l-.82-13.1c.72,5,1.89,15.39,2.18,21.1-.2-10-5.48-61-7.38-88.89-.73-4.92-1.79-13.43-1.74-9.36l.92,8.8c.1,8.15-2.42-16.5-1.7-5.32-1.54-11.78-3.48-25-4.65-41.63l.63-3.21c-.23.38.46,10.92,1.17,15.57-1-6.89-1.12-25.62-3-33.11l.44,11.72c-1.56-11.82-3.88-26.4-4.95-41.17-.29,6.79.42,3.39.32,14,.48-9.2,3.43,37.73,3.46,23-.23,10.86,1.2,18.65,1.45,32.81.26-.47.12-5,1.11,7.35.14.56.37,1.86.52,2.7,0,.37,0,.51,0,.83,0-.25,0-.43,0-.68.1.53.11.58,0-.26-.14-3-.2-5.36-.12-6.35,1.26,6.08,3,25.77,4,32.39.54,7.36-.63-3-.58,1l1.46,9.9c-.58,1,.68,19.61-1.31,2.35l1.41,15.57c.47,9.2,1.48,21.83,2.48,29.58.53,7.36,2.45,18.49,1.34,12.14l2.67,24.38-.15.24c2.14,24.11,5.68,49.51,7,77.17.28,2.49.57,5,.87,7.73.38,3.79.79,7.84,1.24,12.39l9.73-.9,7.26-.6,2.7.34c10.39-1.16,31.33-2.3,35.75-3.32,11.38.52,50.58-4.32,68.93-5.73l.62-.82c12.61-1.12,24.69-2.45,40.31-4.2l-1-.58c13.44-1.79,34.73-2.72,56.07-4.76a89.26,89.26,0,0,1-10.69,1c25.64-.84,53.7-6.06,76.93-7.09,5.74-.77,9.92-1.08,14-1.28l-1.43.17,2.37-.21,8-.39c-2.43.06-4.75.14-6.77.27,4.45-.43,11.18-1.13,17.77-1.91l2.88.46,1.53-.16c6.51-.33,5.18-.82,1.67-1,3.32-.43,6.35-.85,8.7-1.24,5.38.67,17.3-2,24.6-1.42,4.4-1,33.18-3.51,36.59-5.11.24.15,2.19,0-1.38.38,7.38-.53,14.76-1.06,21.33-2l3.21.62,16-2.71c9.83-.34,13.91-.39,4.27,1.21,23.33-3.24,19-2.16,38.8-5.07l-.92.68c7.12-.68,18.44-2.52,22.78-2.43,16-.35,78.85-7.11,119.84-9.84-8.1-1,19.08-1,20.58-2.47,2.42.19,8.14-.1,1.55.87,20.83-2.33,31.42-2.24,45.72-4.71,2.43.19-4.41,1-2.26,1.06a78,78,0,0,1,8.79-.92c2.15,0-3,.63-6.31,1.11,21.31-2,23.35-3.5,24.79-4.83,10.86-.43,16.24-1,24-2.51,3.8,0,10.11-.13-3.12,1.23,7.46-.63,45.58-3.63,46.25-4.65,2.36,0,10.42-.89,12.38-1.18l17.43-1.52,18.19-1.71-5.57.35c.58-.15,1.12-.29,1.75-.42l2.22-.38c1.48-.23,3-.42,4.64-.58-.13-1.5-.27-3.07-.42-4.76-.11-1.52-.23-3.13-.36-4.87-.22-3.2-.49-6.84-.93-11.1l.15.36c-2-30.43-1.61-13.07-3.42-43.1l-.57,1.69c-1.79-2.65-1.53-26.61-3.72-43.94l.17,6.31c-1.41-9.44-.36-26.72-1-36.27-.06-2.09.51,3.26.88,6.15-1.39-25-1.24-3.15-3.17-21.73.19-3.47,1.69,4.3.63-8.22-.16-6.28-5-36.16-5.59-53.33,0,3.8-.09,7.58-1.18-1-1.36-13.22-1.82-35.93-4.15-47.77a7.64,7.64,0,0,1,.08-2.42c-1.25-10.09-3.56-32.84-4.79-38.88,1.61-9.58-7-62.81-4.7-62.8l-3-31.12.31.79c-1.69-19.91-2.88-26.9-4.08-33.84-.26-4.62.26-1.28.41-.91-2.22-29.12-2.58-32-6-56.28l.51-2.6c-1-6.57-2.72-42.15-6.21-70.59a13.76,13.76,0,0,1,.62,3.11c-3.82-32-5-77-8.81-88.52l-2.61-21.11c2.32,27.42-1.55-4-.95,7.34-1.16-10.76-1.76-27.93-.4-14.7l.06,2.08c1.85,4.74-2.65-34.08-1.62-33.43q-1.8-19.88-3.56-39.48-1.82-21-3.59-41.67l-81.35,7.05,5.92.56-17.62,1.56c-4.65.17-6.28-.28,6.28-1.4-6.66,0-21,2.46-21.36,2.73-24.64,1.83,9.5-2.15,2-1.48l-10.24,1,2.32-.08c-8.26,1.21-9,1.75-24.06,3.09-9.58.66-5-.22-8.73.08a3.72,3.72,0,0,0-1.19,0l-4.58.47-22.2,1.95,9,.05c-9.8,1.33-20.87,1.88-10.54,1.91-15.17-.12-82.82,7.09-92.1,7.47-13.71,1.9-27.31,3.14-44.16,4.62,4.2-.21,6.8.53-7.74,1.75,5.13-2.49-26.68,1.59-38.56,1.23,10.58,0-41.28,4-24.69,3.88-12.14,1-.81-.68-10-.3-28.78,3.43-63.63,5.36-99.27,8.91-.53.31,5.48.16-2.13,1.26l-19,.42c-7,.78-6.35,2.11-19.3,2.39,1.84,0,4.58.14-.14.66-70,5.16-142.67,14.21-213.84,18.34,9.66-.37,3.26.27-4.08,1,4.78-.32,0,.66.92.93L1520,511.24c-5.32,1.49-31.84,3-34.86,4.23l9.39-1c-12.4,2.26,17.74.86,16,2.46,13.89-2.56,37.11-1.53,59.92-5.47,5.1-.17-4.28.86-1.54.95,5.77-1.15,12.79-1.93,25.85-2.86l-1.46.29c36.62-3.53,52.38-4.37,93.56-7.76l-3.11-.43c8.85-.72,10.73-.67,14.89-.87,10-2-24.84,2.23-15.71.19,11.86.36,62.36-5.72,70.43-4.82,13.61-1.25-4.06-.45,9.54-1.7l3.64.11,3.39-.88c8.93-.73,13.48-.59,13.84-.25-2.16.16-6.14.67-8.45.92,11.61-.55,32.59-3.19,36.57-3.38l-13.09.93c37.08-3.84,82.46-7.43,118.24-11.64l-2.75-.08c27.33-3.14,22-1.66,52-4.72l-1.08.18c6-.88,14-1.79,22.24-2.51-7.56,1.09,14.35-.56,4.43.79,29.64-3.4,14.64-1.87,34.15-4.92l4.57.13a222.8,222.8,0,0,1,22.18-3c-12.28,1.61,9.66,0-4.08,1.86,31.62-1.69,46.68-5.53,61.3-5.1,14.33-2.86-27.35,1.67-19.27.59-6.84.13,11.83-2.24,21.74-3,10.07-.89,17.3.38,42.62-2l-5.2.58c9.52-.48,18.52-2.24,30.2-2.68,6.44-1.53,15.1-1.34,16.87-2.69l-23.2,2.41c13.14-1.52,25.36-4,47.11-5.37-1.66.39-8.09,1.3-12.51,1.89,6.38-.24,12.2-1.36,18.8-1.61-1.76,1.36-28.2,2.86-42.23,5.06,6.86-.13,26.61-3.31,19.64-1.38,10-2.57,25-2.1,42-4.92l-1.06.81c2.7-.36,8.29-1.21,13.29-1.65l-9,1.75c13.81-2.07,26.83-1.79,40.11-3.44-27.88,2.59-6.34-.28-18.17.29,7.87-.94,13.18-1.45,17.16-1.72l2.74-.16.61,0h.9a13.42,13.42,0,0,1,1.76.17c-.44,1.36-.51,8.6,1.56,29-.58-5.2-1.38-19.61-.3-11.49.53,7.35,1.15,17.05,1.19,21.58,2.5,25.5.37-4,1.8,6.84-.06,8.76,1.51,12.49,2.82,23.65l-.72.15c2.22,29.11,2.21,7.56,4.07,33.79l-2-11,1.52,13.62-1.08-2.74c2,14.78,2.24,19.42,3.35,34,.2-3.43,1.49,1.78,2.7,14.65.38,8.82-1.14-4.85.64,13.39a75.11,75.11,0,0,1-1.88-16.55c-.31-.79-.82-4-1.13-4.84.38,9.51,2.08,23.78,2.69,30.39-.2-2.55-.45-5.59-.49-7.16l3.44,26.36c.11,4.19-.41.91-.92-2.34.57,5.35,1.24,9,2,16.9-.77-2-1.33-1.44-2.64-12.57l3,25.15c-.1,1.7.49,13,0,9.74.95,14,4.3,34.18,5.55,52.75.21,1,.49,2.88.94,6.81,1.47,17.42,2.18,32.91,4.88,53.48l0,11.81c1.73,16.14-.14-16,2.74,10.9,2.09,19-.24,7.2.09,13.91,1.4,9.43,4,25.8,4.75,43.38C2332.79,863.64,2332.53,859.08,2332,853.67ZM2350.8,1053c-.51-3.84-1.69-11.5-1.52-14.37C2350.51,1042.94,2350.43,1046.38,2350.8,1053ZM2239,1235.47a104.17,104.17,0,0,1,12.34-1C2247.73,1234.88,2243.6,1235.24,2239,1235.47ZM1526,1153.38c0,.17,0,.28.07.41C1526.54,1162.43,1526.37,1159.37,1526,1153.38Zm-1.34-17.92c-.26-1.79-.35-1.65-.38-.88.29,1.23.68,5.24,1,9.82A55.71,55.71,0,0,0,1524.61,1135.46ZM2151.44,453l3.5-.13C2147.09,453.81,2149.28,453.42,2151.44,453Z"/><path class="cls-4" d="M2273.29,1231.32a4.17,4.17,0,0,1,1.69.24C2276.48,1231.3,2276.5,1231.15,2273.29,1231.32Z"/><path class="cls-4" d="M2320.14,729.73l0-.61a2.59,2.59,0,0,0-.18-.6Z"/><path class="cls-4" d="M1654,1288c3.69-.24,5.76-.3,7.14-.29C1661.29,1287.52,1659.6,1287.52,1654,1288Z"/><path class="cls-4" d="M1514.65,1040.76l1.24,11.44c-.54-5.54-.57-7.53-.71-10.34C1515,1042.13,1515,1044.34,1514.65,1040.76Z"/><path class="cls-4" d="M1509.93,940.87c-.19-1.68-.39-3.54-.58-5.2l-.29.49C1509.74,943.29,1510.47,948.26,1509.93,940.87Z"/><path class="cls-4" d="M1516.06,1029.93c.52-1-.35-8.14-1.2-16.16.05.49.09.94.13,1.42C1513.93,1012.91,1515,1021.44,1516.06,1029.93Z"/><path class="cls-4" d="M1514.67,1011.91c-.23-2.47-.47-5-.7-7.42C1513.54,1003.59,1514.18,1007.51,1514.67,1011.91Z"/><path class="cls-4" d="M1522.12,1112.8c-.2-3.82-1-2.31-.95-4.49C1520,1104.13,1524.45,1133.61,1522.12,1112.8Z"/><polygon class="cls-4" points="1517.46 1023.24 1516.97 1026.19 1517.99 1030.63 1517.46 1023.24"/><path class="cls-4" d="M1522.75,1086.69l-1-12.85c-.11.2-.33-1.42-.58-3.42C1521.91,1078.33,1522.56,1087,1522.75,1086.69Z"/><path class="cls-4" d="M1521.2,1070.42c-.36-4.11-.74-8-1.07-10.31C1520.34,1062.34,1520.81,1067.13,1521.2,1070.42Z"/><polygon class="cls-4" points="1519.3 1040.76 1519.49 1044.57 1520.27 1053.63 1519.3 1040.76"/><path class="cls-4" d="M1535.32,1224.6l1.51,14c.39,1.4.19-2.43-.39-7.63C1536,1227.61,1535.37,1222.43,1535.32,1224.6Z"/><path class="cls-4" d="M1533.47,1182.07a51.85,51.85,0,0,1,0,6.23l1,.34Z"/><path class="cls-4" d="M1537.45,1222.88c.38,1.37,2.61,20.25.91,2.51C1538,1224,1536.47,1210,1537.45,1222.88Z"/><polygon class="cls-4" points="1675.85 1288.54 1672.29 1288.88 1672.94 1290.35 1675.85 1288.54"/><path class="cls-4" d="M1861.45,1267.76c-16.62,1.17-3.86,1.3-18.89,2.23-3.86.72,12.29-.76,8.32-.08C1860.86,1268.61,1866.14,1268.34,1861.45,1267.76Z"/><path class="cls-4" d="M1850.88,1269.91l-5.09.7C1848.69,1270.25,1850.05,1270.05,1850.88,1269.91Z"/><polygon class="cls-4" points="1500 512.29 1489.3 512.96 1496.24 512.83 1500 512.29"/><path class="cls-4" d="M1479.63,515.31l-2.61-.74L1470.7,516C1473.11,515.77,1477.77,515.26,1479.63,515.31Z"/><path class="cls-4" d="M2351.58,1082.8l.3.79a77.5,77.5,0,0,0-.53-9.18Z"/><polygon class="cls-4" points="2338.96 938.04 2339.17 940.54 2339.62 935.8 2338.96 938.04"/><path class="cls-4" d="M2326.65,816.71c.49,4.95,1.08,10.78,1.57,15.75C2327.07,821.67,2327.62,815.27,2326.65,816.71Z"/></svg>